<svg id="svg" version="1.1" xmlns="http://www.w3.org/2000/svg" xmlns:xlink="http://www.w3.org/1999/xlink" width="400" height="237.34939759036146" viewBox="0, 0, 400,237.34939759036146"><g id="svgg"><path id="path0" d="M88.644 12.223 C 88.496 12.814,88.472 12.819,85.892 12.819 C 83.309 12.819,82.611 13.017,82.611 13.752 C 82.611 13.908,81.987 14.006,80.997 14.006 C 80.058 14.006,79.264 14.125,79.098 14.291 C 78.876 14.512,78.813 14.512,78.813 14.291 C 78.813 13.876,77.487 13.942,77.050 14.379 C 76.844 14.584,76.677 14.851,76.677 14.972 C 76.677 15.094,75.555 15.193,74.173 15.193 C 71.818 15.193,71.636 15.228,71.128 15.777 C 70.643 16.300,70.367 16.367,68.469 16.429 C 66.788 16.484,66.365 16.568,66.423 16.835 C 66.486 17.126,66.440 17.126,66.085 16.835 C 65.714 16.531,65.688 16.550,65.812 17.033 C 65.947 17.557,65.911 17.567,63.818 17.567 C 61.718 17.567,61.009 17.802,61.009 18.499 C 61.009 18.725,59.270 18.885,58.102 18.766 C 57.863 18.742,57.572 18.981,57.412 19.333 C 57.133 19.944,56.855 20.028,55.376 19.947 C 54.828 19.917,54.453 20.075,54.059 20.499 C 53.690 20.897,53.199 21.118,52.570 21.170 C 51.874 21.227,51.573 21.381,51.402 21.770 C 51.222 22.180,50.940 22.308,50.097 22.363 C 49.196 22.422,49.009 22.518,48.947 22.955 C 48.884 23.395,48.698 23.488,47.760 23.548 C 46.813 23.609,46.636 23.700,46.571 24.154 C 46.502 24.640,46.018 24.845,45.257 24.708 C 44.757 24.619,44.154 24.997,44.154 25.401 C 44.154 25.708,43.954 25.867,43.501 25.919 C 42.989 25.978,42.833 26.134,42.774 26.647 C 42.698 27.302,42.546 27.365,41.029 27.365 C 40.768 27.365,40.663 27.518,40.720 27.815 C 40.785 28.154,40.633 28.301,40.104 28.407 C 39.624 28.502,39.355 28.726,39.259 29.110 C 39.169 29.468,38.945 29.674,38.643 29.674 C 38.319 29.674,38.212 29.786,38.305 30.030 C 38.381 30.226,38.349 30.386,38.236 30.386 C 38.122 30.386,38.020 32.228,38.009 34.481 L 37.989 38.576 37.373 39.074 C 36.836 39.509,36.763 39.737,36.797 40.855 C 36.857 42.835,36.834 42.929,36.261 43.010 C 35.807 43.075,35.716 43.252,35.655 44.199 C 35.595 45.137,35.502 45.323,35.062 45.386 C 34.621 45.448,34.529 45.634,34.468 46.588 C 34.416 47.389,34.294 47.715,34.046 47.715 C 33.660 47.715,33.234 48.637,33.234 49.473 C 33.234 49.823,33.019 50.111,32.619 50.293 C 32.075 50.541,32.017 50.681,32.113 51.518 C 32.173 52.038,32.130 52.476,32.016 52.493 C 31.903 52.509,31.703 52.549,31.573 52.582 C 31.442 52.614,31.202 52.656,31.039 52.674 C 30.832 52.697,30.850 52.778,31.098 52.938 C 31.335 53.091,31.355 53.169,31.157 53.171 C 30.978 53.174,30.861 53.498,30.861 53.989 C 30.861 54.653,30.762 54.818,30.326 54.880 C 29.772 54.958,29.752 55.006,29.703 56.380 C 29.678 57.100,29.594 57.211,29.080 57.211 C 28.579 57.211,28.487 57.321,28.487 57.923 C 28.487 58.524,28.394 58.635,27.893 58.635 C 27.340 58.635,27.300 58.715,27.300 59.806 C 27.300 60.907,27.261 60.982,26.647 61.052 C 26.177 61.107,25.994 61.261,25.994 61.602 C 25.994 61.918,25.796 62.117,25.401 62.197 C 25.026 62.273,24.780 62.504,24.735 62.822 C 24.680 63.209,24.440 63.362,23.702 63.480 C 23.023 63.588,22.706 63.771,22.619 64.102 C 22.552 64.359,22.375 64.582,22.228 64.597 C 22.080 64.612,21.798 64.639,21.602 64.656 C 21.407 64.674,21.212 64.929,21.170 65.223 C 21.116 65.609,20.935 65.757,20.518 65.757 C 20.060 65.757,19.941 65.880,19.941 66.350 C 19.941 66.895,19.854 66.944,18.872 66.944 C 17.820 66.944,17.742 67.010,17.737 67.906 C 17.735 68.177,17.554 68.249,17.057 68.176 C 16.460 68.088,16.380 68.150,16.380 68.697 C 16.380 69.201,16.268 69.318,15.786 69.318 C 15.312 69.318,15.193 69.436,15.193 69.911 C 15.193 70.386,15.074 70.504,14.599 70.504 C 14.125 70.504,14.006 70.623,14.006 71.098 C 14.006 71.659,13.803 71.798,13.116 71.709 C 12.946 71.687,12.819 71.929,12.819 72.274 C 12.819 72.607,12.712 72.892,12.582 72.908 C 12.451 72.924,12.211 72.951,12.047 72.967 C 11.863 72.986,11.724 73.458,11.680 74.216 C 11.614 75.350,11.561 75.444,10.919 75.573 L 10.229 75.711 10.278 79.102 L 10.326 82.493 10.979 82.568 C 11.438 82.620,11.632 82.778,11.632 83.097 C 11.632 83.516,12.365 83.898,12.953 83.785 C 14.067 83.570,15.165 83.834,15.236 84.332 C 15.284 84.676,15.502 84.894,15.846 84.942 C 16.599 85.049,16.599 86.108,15.846 86.215 C 15.356 86.284,15.306 86.433,15.242 87.997 C 15.179 89.550,15.126 89.709,14.649 89.777 L 14.125 89.852 14.056 97.567 C 13.981 105.899,14.007 106.243,14.719 106.469 C 15.137 106.602,15.193 106.829,15.193 108.384 L 15.193 110.148 15.852 110.148 C 16.478 110.148,16.507 110.196,16.420 111.100 C 16.296 112.400,16.527 113.174,17.093 113.353 C 17.421 113.458,17.567 113.713,17.567 114.185 C 17.567 115.157,17.969 116.083,18.392 116.083 C 18.636 116.083,18.754 116.315,18.754 116.795 C 18.754 117.397,18.846 117.507,19.347 117.507 C 19.862 117.507,19.945 117.618,19.970 118.338 C 20.019 119.712,20.039 119.760,20.593 119.838 C 20.980 119.893,21.128 120.074,21.128 120.491 C 21.128 120.948,21.251 121.068,21.721 121.068 C 22.196 121.068,22.315 121.187,22.315 121.662 C 22.315 122.136,22.433 122.255,22.908 122.255 C 23.247 122.255,23.501 122.392,23.501 122.574 C 23.501 122.750,23.768 123.204,24.095 123.583 C 24.421 123.963,24.688 124.353,24.688 124.451 C 24.688 124.549,24.955 124.629,25.282 124.629 C 25.757 124.629,25.875 124.748,25.875 125.223 C 25.875 125.724,25.986 125.816,26.588 125.816 C 27.217 125.816,27.300 125.897,27.300 126.512 C 27.300 127.096,27.406 127.221,27.953 127.284 C 28.318 127.326,28.605 127.505,28.605 127.691 C 28.605 128.081,29.287 128.387,30.208 128.411 C 30.708 128.423,30.861 128.544,30.861 128.927 C 30.861 129.275,30.970 129.386,31.217 129.291 C 31.412 129.216,31.573 129.258,31.573 129.384 C 31.573 129.511,32.212 129.614,32.993 129.614 C 34.308 129.614,34.423 129.658,34.561 130.206 C 34.643 130.532,34.812 130.734,34.938 130.657 C 35.063 130.579,35.106 130.361,35.034 130.171 C 34.955 129.967,35.004 129.890,35.152 129.982 C 35.290 130.067,35.344 130.291,35.272 130.479 C 35.159 130.772,36.229 130.816,42.852 130.789 C 47.294 130.771,50.564 130.666,50.564 130.542 C 50.564 130.423,50.697 130.353,50.861 130.386 C 51.024 130.418,51.142 130.258,51.124 130.030 C 51.096 129.670,51.317 129.614,52.764 129.614 C 54.171 129.614,54.556 129.522,55.195 129.035 C 55.706 128.645,56.334 128.432,57.117 128.382 C 58.094 128.320,58.290 128.228,58.351 127.803 C 58.412 127.376,58.634 127.274,59.775 127.148 C 60.519 127.065,61.256 126.981,61.414 126.961 C 61.571 126.941,61.651 126.844,61.590 126.746 C 61.530 126.649,61.615 126.515,61.779 126.449 C 62.013 126.354,62.011 126.324,61.771 126.310 C 60.829 126.252,62.169 125.702,63.175 125.734 C 63.813 125.754,64.273 125.674,64.199 125.556 C 64.127 125.438,64.180 125.341,64.318 125.341 C 64.457 125.341,64.570 125.181,64.570 124.985 C 64.570 124.623,64.888 124.545,66.053 124.622 C 66.412 124.645,66.720 124.550,66.736 124.410 C 66.806 123.811,66.831 123.713,66.951 123.593 C 67.020 123.524,67.527 123.441,68.078 123.408 C 68.629 123.376,69.093 123.263,69.110 123.158 C 69.126 123.053,69.153 122.834,69.169 122.671 C 69.187 122.495,69.682 122.326,70.386 122.255 C 71.393 122.155,71.584 122.055,71.649 121.602 C 71.708 121.187,71.879 121.068,72.420 121.068 C 72.816 121.068,73.117 120.941,73.119 120.772 C 73.122 120.538,73.164 120.539,73.314 120.776 C 73.453 120.995,73.593 120.914,73.825 120.479 C 74.027 120.103,74.350 119.881,74.699 119.881 C 75.131 119.881,75.252 119.751,75.252 119.288 C 75.252 118.734,75.331 118.694,76.439 118.694 C 77.547 118.694,77.626 118.655,77.626 118.101 C 77.626 117.555,77.713 117.507,78.700 117.507 C 79.618 117.507,79.806 117.424,79.993 116.932 C 80.120 116.599,80.442 116.324,80.759 116.279 C 81.098 116.231,81.332 116.015,81.376 115.711 C 81.428 115.349,81.706 115.162,82.436 114.999 C 83.140 114.841,83.463 114.633,83.553 114.277 C 83.630 113.975,83.840 113.802,84.085 113.839 C 84.481 113.900,85.175 113.299,85.031 113.020 C 84.990 112.942,85.204 112.821,85.505 112.750 C 85.824 112.675,86.083 112.415,86.125 112.127 C 86.181 111.746,86.417 111.602,87.154 111.504 C 88.241 111.358,88.320 111.307,88.407 110.704 C 88.447 110.429,88.704 110.239,89.101 110.192 C 89.586 110.134,89.733 109.986,89.733 109.556 C 89.733 109.154,89.885 108.973,90.267 108.919 C 90.610 108.870,90.828 108.652,90.877 108.309 C 90.931 107.925,91.113 107.774,91.519 107.774 C 91.830 107.774,92.352 107.507,92.679 107.181 C 93.006 106.854,93.548 106.588,93.887 106.588 C 94.241 106.588,94.485 106.462,94.463 106.291 C 94.374 105.604,94.513 105.401,95.074 105.401 C 95.545 105.401,95.668 105.281,95.668 104.823 C 95.668 104.369,95.808 104.229,96.320 104.170 C 96.680 104.129,96.987 103.961,97.003 103.798 C 97.019 103.635,97.046 103.395,97.062 103.264 C 97.079 103.134,97.359 103.027,97.685 103.027 C 98.012 103.027,98.279 102.912,98.279 102.772 C 98.279 102.368,98.877 101.877,99.587 101.699 C 99.946 101.609,100.292 101.337,100.355 101.094 C 100.419 100.851,100.565 100.653,100.681 100.653 C 101.026 100.653,101.867 99.703,101.726 99.473 C 101.653 99.356,101.890 99.227,102.251 99.185 C 102.782 99.124,102.907 98.992,102.902 98.495 C 102.896 97.995,102.996 97.892,103.437 97.941 C 103.735 97.973,103.918 97.903,103.845 97.783 C 103.771 97.664,103.824 97.567,103.962 97.567 C 104.101 97.567,104.214 97.432,104.214 97.268 C 104.214 97.103,104.426 96.836,104.686 96.674 C 104.969 96.497,105.218 96.000,105.309 95.430 C 105.437 94.632,105.551 94.481,106.024 94.481 C 106.467 94.481,106.588 94.353,106.588 93.887 C 106.588 93.335,106.787 93.191,107.445 93.269 C 107.615 93.289,107.724 92.672,107.751 91.540 L 107.791 89.780 104.698 89.748 C 101.442 89.713,100.653 89.897,100.653 90.691 C 100.653 91.032,100.491 91.157,100.049 91.157 C 99.716 91.157,99.177 91.424,98.851 91.751 C 98.524 92.077,97.995 92.344,97.675 92.344 C 97.211 92.344,97.092 92.466,97.092 92.938 C 97.092 93.492,97.013 93.531,95.905 93.531 C 94.797 93.531,94.718 93.571,94.718 94.125 C 94.718 94.628,94.608 94.718,93.995 94.718 C 93.524 94.718,93.075 94.930,92.709 95.325 C 92.400 95.659,91.924 95.948,91.652 95.969 C 91.306 95.995,91.157 96.169,91.157 96.549 C 91.157 97.033,91.043 97.092,90.103 97.092 C 89.523 97.092,88.973 97.215,88.879 97.366 C 88.766 97.550,88.820 97.577,89.043 97.450 C 89.227 97.345,89.134 97.496,88.836 97.784 C 88.539 98.073,88.085 98.325,87.827 98.345 C 87.570 98.364,87.359 98.504,87.359 98.656 C 87.359 99.097,86.656 99.561,85.971 99.573 C 85.561 99.581,85.263 99.763,85.117 100.096 C 84.963 100.445,84.598 100.654,83.965 100.755 C 83.328 100.857,83.001 101.046,82.919 101.358 C 82.847 101.633,82.552 101.842,82.172 101.886 C 81.729 101.937,81.521 102.116,81.467 102.493 C 81.398 102.979,80.914 103.183,80.153 103.047 C 79.660 102.958,79.050 103.333,79.050 103.725 C 79.050 104.037,78.806 104.192,78.148 104.297 C 77.612 104.383,77.035 104.683,76.729 105.035 C 76.421 105.389,76.068 105.572,75.852 105.489 C 75.575 105.383,75.490 105.524,75.490 106.087 C 75.490 106.814,75.472 106.825,74.307 106.825 C 73.250 106.825,73.109 106.887,72.979 107.406 C 72.854 107.904,72.675 107.998,71.728 108.059 C 70.789 108.120,70.612 108.211,70.547 108.665 C 70.499 109.008,70.308 109.199,70.013 109.199 C 69.761 109.199,69.553 109.332,69.551 109.496 C 69.549 109.701,69.494 109.712,69.373 109.531 C 69.170 109.228,68.382 109.185,68.338 109.476 C 68.322 109.585,68.295 109.807,68.279 109.970 C 68.261 110.146,67.766 110.315,67.062 110.386 C 65.984 110.494,65.876 110.559,65.881 111.098 C 65.886 111.667,65.834 111.688,64.634 111.610 C 63.425 111.531,63.383 111.549,63.383 112.144 C 63.383 112.724,63.315 112.760,62.196 112.760 C 61.088 112.760,61.009 112.799,61.009 113.353 C 61.009 113.907,59.628 114.188,57.898 113.986 C 57.818 113.977,57.613 114.231,57.442 114.551 C 57.150 115.097,57.008 115.134,55.170 115.134 C 53.269 115.134,52.463 115.417,52.463 116.087 C 52.463 116.201,51.965 116.327,51.357 116.367 C 50.495 116.423,50.237 116.536,50.188 116.876 C 50.099 117.492,50.155 117.474,48.072 117.530 C 45.711 117.592,45.341 117.689,45.341 118.247 C 45.341 118.964,41.747 118.914,41.266 118.190 C 40.981 117.761,40.637 117.670,38.923 117.576 C 36.754 117.457,36.684 117.434,36.680 116.841 C 36.678 116.611,36.428 116.394,36.083 116.323 C 35.757 116.257,35.479 116.068,35.466 115.905 C 35.409 115.189,35.348 115.103,34.955 115.182 C 34.684 115.236,34.441 115.037,34.255 114.606 C 34.098 114.243,33.804 113.947,33.602 113.947 C 33.400 113.947,33.234 113.786,33.234 113.591 C 33.234 113.395,33.121 113.234,32.983 113.234 C 32.845 113.234,32.802 113.120,32.888 112.981 C 32.974 112.842,32.900 112.748,32.724 112.772 C 32.035 112.866,31.810 112.740,31.810 112.260 C 31.810 111.985,31.543 111.550,31.217 111.293 C 30.790 110.957,30.623 110.598,30.623 110.012 C 30.623 109.303,30.547 109.199,30.030 109.199 C 29.484 109.199,29.436 109.113,29.436 108.119 C 29.436 107.273,29.308 106.921,28.843 106.490 C 28.284 105.972,28.249 105.796,28.249 103.518 C 28.249 101.109,27.989 100.017,27.489 100.327 C 27.334 100.422,27.293 100.380,27.389 100.225 C 27.479 100.080,27.719 100.025,27.922 100.103 C 28.210 100.214,28.282 100.093,28.246 99.559 C 28.095 97.345,28.277 92.107,28.504 92.107 C 29.199 92.107,29.436 91.397,29.436 89.316 C 29.436 87.277,29.455 87.203,29.970 87.222 C 30.468 87.239,30.509 87.128,30.575 85.610 C 30.646 83.976,30.948 83.313,31.533 83.508 C 31.771 83.587,31.837 83.278,31.808 82.222 C 31.756 80.264,31.762 80.237,32.237 80.237 C 32.923 80.237,33.234 79.740,33.234 78.647 C 33.234 77.898,33.329 77.626,33.591 77.626 C 33.912 77.626,34.052 77.344,33.975 76.855 C 33.959 76.757,34.058 76.677,34.194 76.677 C 34.331 76.677,34.425 76.543,34.404 76.380 C 34.304 75.614,34.453 75.252,34.868 75.252 C 35.352 75.252,35.600 74.647,35.605 73.453 C 35.608 72.848,35.701 72.725,36.142 72.741 C 36.523 72.754,36.698 72.606,36.752 72.226 C 36.803 71.869,37.001 71.682,37.346 71.664 C 37.631 71.649,37.970 71.612,38.101 71.581 C 38.231 71.551,38.465 71.510,38.619 71.490 C 38.773 71.470,38.963 71.254,39.041 71.008 C 39.136 70.709,39.500 70.512,40.149 70.408 C 40.834 70.299,41.152 70.117,41.239 69.786 C 41.333 69.426,41.565 69.318,42.238 69.318 C 42.720 69.318,43.321 69.149,43.575 68.942 C 44.029 68.572,44.029 68.568,43.561 68.705 C 43.093 68.842,43.093 68.839,43.547 68.487 C 43.800 68.291,44.308 68.117,44.674 68.101 C 45.041 68.085,45.448 68.045,45.579 68.012 C 45.709 67.979,45.923 67.939,46.053 67.923 C 46.184 67.907,46.291 67.680,46.291 67.418 C 46.291 67.009,46.449 66.944,47.443 66.944 C 48.336 66.944,48.736 66.813,49.222 66.363 C 49.665 65.952,50.177 65.762,50.977 65.710 C 51.883 65.652,52.153 65.532,52.341 65.104 C 52.542 64.646,52.756 64.570,53.840 64.570 C 55.315 64.570,56.024 64.262,56.024 63.622 C 56.024 63.221,56.230 63.158,57.745 63.096 C 59.324 63.032,59.472 62.983,59.542 62.493 C 59.609 62.018,59.761 61.955,60.907 61.929 C 61.616 61.912,62.303 61.872,62.433 61.840 C 62.564 61.807,62.777 61.767,62.908 61.751 C 63.039 61.734,63.133 61.641,63.117 61.543 C 63.016 60.904,63.245 60.789,64.748 60.723 C 66.147 60.662,66.380 60.585,66.584 60.119 C 66.785 59.661,67.000 59.585,68.079 59.585 C 69.125 59.585,69.436 59.482,69.900 58.981 C 70.451 58.386,70.513 58.377,73.939 58.383 C 77.336 58.388,77.432 58.375,77.938 57.807 C 78.362 57.333,78.719 57.214,79.881 57.159 C 81.154 57.099,81.314 57.035,81.381 56.558 C 81.448 56.088,81.595 56.024,82.608 56.024 C 83.564 56.024,83.865 55.910,84.395 55.349 C 84.851 54.866,85.194 54.705,85.602 54.783 C 85.998 54.859,86.172 54.784,86.172 54.537 C 86.172 54.012,86.711 53.658,87.621 53.586 C 88.295 53.532,88.439 53.419,88.500 52.898 C 88.544 52.518,88.754 52.227,89.034 52.153 C 89.696 51.980,89.686 50.569,89.021 50.395 C 88.576 50.279,88.317 48.362,88.535 46.795 C 88.567 46.565,88.380 46.499,87.899 46.569 C 87.277 46.661,87.226 46.614,87.312 46.032 L 87.405 45.395 85.661 45.428 C 84.045 45.458,83.911 45.499,83.841 45.994 C 83.756 46.593,83.923 46.568,80.179 46.529 C 77.731 46.504,77.604 46.527,77.065 47.109 C 76.528 47.689,76.390 47.715,73.860 47.715 C 71.905 47.715,71.216 47.792,71.213 48.012 C 71.211 48.210,71.133 48.190,70.979 47.953 C 70.794 47.665,70.748 47.701,70.745 48.138 C 70.741 48.847,70.618 48.878,67.441 48.955 C 65.020 49.014,64.726 49.067,64.669 49.458 C 64.577 50.091,64.680 50.070,61.530 50.104 C 58.681 50.136,58.630 50.146,58.489 50.706 C 58.354 51.246,58.245 51.277,56.413 51.303 C 53.755 51.341,53.769 51.338,53.768 51.850 C 53.766 52.402,53.692 52.427,51.751 52.513 C 50.356 52.575,50.200 52.633,50.132 53.116 C 50.063 53.601,49.927 53.650,48.648 53.650 C 47.874 53.650,47.240 53.753,47.240 53.880 C 47.240 54.006,47.080 54.048,46.884 53.973 C 46.637 53.878,46.528 53.990,46.528 54.337 C 46.528 54.743,46.383 54.837,45.757 54.837 L 44.985 54.837 45.066 53.670 C 45.136 52.668,45.228 52.483,45.717 52.360 C 46.031 52.282,46.276 52.139,46.261 52.043 C 46.095 50.962,46.334 50.116,46.825 50.046 C 47.281 49.981,47.370 49.805,47.431 48.843 C 47.488 47.956,47.592 47.715,47.918 47.715 C 48.591 47.715,48.902 47.212,48.902 46.125 C 48.902 45.563,49.009 45.091,49.139 45.074 C 49.270 45.058,49.510 45.031,49.674 45.015 C 49.853 44.997,49.999 44.545,50.042 43.872 C 50.103 42.934,50.195 42.748,50.636 42.686 C 51.176 42.609,51.197 42.557,51.246 41.203 C 51.270 40.551,51.382 40.374,51.810 40.313 C 52.171 40.262,52.371 40.046,52.427 39.647 C 52.473 39.322,52.767 38.800,53.080 38.487 C 53.394 38.174,53.650 37.690,53.650 37.413 C 53.650 37.117,53.871 36.811,54.184 36.674 C 54.478 36.545,54.752 36.199,54.794 35.905 C 54.836 35.611,55.019 35.371,55.201 35.371 C 55.624 35.371,56.024 34.628,56.024 33.843 C 56.024 33.369,56.143 33.234,56.561 33.234 C 56.890 33.234,57.189 33.028,57.332 32.700 C 57.503 32.312,57.826 32.134,58.516 32.047 C 59.039 31.982,59.479 31.795,59.496 31.632 C 59.512 31.469,59.539 31.175,59.555 30.979 C 59.575 30.738,59.846 30.623,60.396 30.623 C 61.515 30.623,61.958 30.414,61.958 29.886 C 61.958 29.495,62.144 29.436,63.383 29.436 C 64.362 29.436,64.808 29.343,64.811 29.139 C 64.813 28.938,64.885 28.954,65.035 29.191 C 65.211 29.470,65.303 29.412,65.500 28.894 C 65.736 28.272,66.768 28.029,68.314 28.233 C 68.667 28.279,69.318 27.685,69.318 27.317 C 69.318 27.160,69.956 27.062,70.979 27.062 C 71.909 27.062,72.654 26.958,72.671 26.825 C 72.687 26.694,72.714 26.454,72.730 26.291 C 72.751 26.082,73.425 25.974,75.013 25.925 C 76.252 25.887,77.368 25.754,77.493 25.628 C 77.639 25.483,77.612 25.401,77.419 25.401 C 77.197 25.401,77.209 25.309,77.467 25.051 C 77.713 24.805,78.411 24.692,79.829 24.668 C 82.012 24.630,82.522 24.468,82.297 23.882 C 82.171 23.551,82.417 23.501,84.176 23.501 C 85.732 23.501,86.159 23.433,86.022 23.205 C 85.899 23.000,85.968 23.009,86.242 23.231 C 86.785 23.672,87.447 23.390,87.290 22.786 C 87.184 22.384,91.627 21.990,92.166 22.355 C 92.313 22.454,93.320 21.787,93.201 21.668 C 93.128 21.595,92.927 21.630,92.754 21.747 C 92.582 21.863,92.644 21.772,92.893 21.543 C 93.274 21.194,93.817 21.128,96.283 21.128 C 99.217 21.128,99.220 21.127,99.368 20.534 L 99.517 19.941 103.705 19.913 C 106.009 19.897,108.040 19.905,108.218 19.929 C 108.763 20.005,109.911 19.429,109.911 19.081 C 109.911 18.857,110.212 18.754,110.861 18.754 C 111.383 18.754,111.810 18.650,111.810 18.524 C 111.810 18.397,111.961 18.352,112.145 18.422 C 112.343 18.498,112.540 18.360,112.628 18.082 C 112.710 17.825,113.020 17.553,113.318 17.478 C 113.616 17.403,114.001 17.077,114.174 16.754 C 114.348 16.430,114.608 16.187,114.752 16.213 C 114.924 16.244,115.015 15.685,115.015 14.599 C 115.015 13.444,114.924 12.929,114.718 12.908 C 114.555 12.892,114.322 12.865,114.200 12.849 C 114.079 12.832,113.945 12.579,113.904 12.285 L 113.828 11.751 101.311 11.689 L 88.793 11.628 88.644 12.223 M363.697 55.151 C 363.557 55.292,363.442 55.545,363.442 55.715 C 363.442 55.985,362.982 56.139,362.433 56.052 C 362.335 56.036,362.255 56.127,362.255 56.254 C 362.255 56.380,362.106 56.426,361.924 56.356 C 361.741 56.286,361.448 56.435,361.271 56.686 C 361.094 56.937,360.709 57.218,360.416 57.311 C 360.123 57.404,359.819 57.734,359.741 58.044 C 359.656 58.382,359.394 58.637,359.087 58.681 C 358.771 58.726,358.547 58.952,358.502 59.273 C 358.456 59.597,358.232 59.821,357.908 59.867 C 357.579 59.914,357.361 60.137,357.313 60.475 C 357.264 60.818,357.073 61.009,356.779 61.009 C 356.527 61.009,356.307 61.116,356.291 61.246 C 356.274 61.377,356.234 61.591,356.202 61.721 C 356.169 61.852,356.129 62.279,356.113 62.671 C 356.088 63.264,355.984 63.383,355.490 63.383 C 355.015 63.383,354.896 63.501,354.896 63.976 C 354.896 64.303,354.789 64.583,354.659 64.599 C 354.528 64.616,354.288 64.642,354.125 64.659 C 353.961 64.675,353.815 64.822,353.798 64.985 C 353.782 65.148,353.755 65.442,353.739 65.638 C 353.723 65.834,353.553 65.994,353.361 65.994 C 352.927 65.994,352.522 66.724,352.522 67.505 C 352.522 67.939,352.379 68.118,351.988 68.173 C 351.535 68.238,351.436 68.429,351.335 69.436 C 351.236 70.425,351.137 70.623,350.742 70.623 C 350.345 70.623,350.255 70.805,350.195 71.736 C 350.135 72.674,350.042 72.860,349.602 72.923 C 349.151 72.987,349.070 73.167,349.008 74.243 C 348.942 75.388,348.889 75.490,348.356 75.490 C 347.817 75.490,347.774 75.576,347.774 76.677 C 347.774 77.776,347.732 77.864,347.197 77.864 C 346.666 77.864,346.268 78.395,346.370 78.967 C 346.486 79.612,346.305 80.237,346.002 80.237 C 345.553 80.237,345.216 80.888,345.220 81.748 C 345.222 82.367,344.988 82.680,344.332 82.932 C 344.185 82.989,344.214 83.226,344.408 83.553 C 344.580 83.844,344.661 84.143,344.586 84.217 C 344.512 84.291,344.451 84.221,344.451 84.061 C 344.451 83.901,344.344 83.836,344.214 83.917 C 344.083 83.998,343.976 84.312,343.976 84.615 C 343.976 84.963,343.805 85.212,343.513 85.288 C 343.164 85.380,343.012 85.694,342.897 86.564 C 342.765 87.553,342.608 87.819,341.795 88.429 C 341.273 88.820,340.746 89.326,340.623 89.555 C 340.499 89.783,340.240 89.970,340.046 89.970 C 339.852 89.970,339.576 90.228,339.432 90.544 C 339.288 90.859,338.962 91.172,338.707 91.238 C 338.452 91.305,338.187 91.575,338.118 91.838 C 338.050 92.102,337.764 92.350,337.483 92.390 C 337.164 92.436,336.945 92.663,336.897 92.997 C 336.824 93.512,336.612 93.635,335.951 93.546 C 335.780 93.523,335.659 93.644,335.682 93.814 C 335.776 94.513,335.638 94.718,335.074 94.718 C 334.599 94.718,334.481 94.837,334.481 95.312 C 334.481 95.786,334.362 95.905,333.887 95.905 C 333.412 95.905,333.294 96.024,333.294 96.499 C 333.294 96.973,333.175 97.092,332.700 97.092 C 332.230 97.092,332.107 97.212,332.107 97.670 C 332.107 98.123,331.967 98.264,331.454 98.323 C 330.996 98.375,330.779 98.551,330.728 98.909 C 330.684 99.221,330.429 99.478,330.077 99.566 C 329.759 99.646,329.510 99.790,329.525 99.885 C 329.609 100.432,329.430 100.653,328.902 100.653 C 328.427 100.653,328.309 100.772,328.309 101.246 C 328.309 101.669,328.180 101.840,327.861 101.840 C 327.615 101.840,327.245 102.098,327.038 102.413 C 326.832 102.728,326.332 103.058,325.929 103.147 C 325.458 103.250,325.116 103.514,324.977 103.880 C 324.773 104.414,324.483 104.574,323.917 104.459 C 323.786 104.433,323.755 104.487,323.846 104.578 C 324.045 104.777,323.641 105.214,322.879 105.622 C 322.486 105.832,322.356 106.072,322.429 106.453 C 322.514 106.896,322.436 106.978,321.977 106.927 C 321.564 106.882,321.386 107.012,321.279 107.439 C 321.177 107.845,320.970 108.012,320.568 108.012 C 320.120 108.012,320.000 108.138,320.000 108.605 C 320.000 109.080,319.881 109.199,319.407 109.199 C 318.932 109.199,318.813 109.318,318.813 109.792 C 318.813 110.270,318.695 110.386,318.209 110.386 C 317.876 110.386,317.337 110.653,317.011 110.979 C 316.685 111.306,316.155 111.573,315.835 111.573 C 315.379 111.573,315.252 111.696,315.252 112.139 C 315.252 112.587,315.103 112.728,314.540 112.810 L 313.828 112.915 313.828 111.532 C 313.828 110.214,313.856 110.148,314.421 110.148 C 314.969 110.148,315.015 110.063,315.015 109.048 C 315.015 108.179,315.140 107.832,315.608 107.398 C 316.104 106.938,316.202 106.630,316.202 105.531 C 316.202 104.284,316.234 104.214,316.795 104.214 C 317.267 104.214,317.389 104.094,317.389 103.631 C 317.389 103.310,317.656 102.781,317.982 102.455 C 318.309 102.128,318.576 101.597,318.576 101.274 C 318.576 100.845,318.720 100.665,319.110 100.610 C 319.578 100.543,319.644 100.395,319.644 99.406 C 319.644 98.502,319.726 98.273,320.059 98.249 C 320.288 98.233,320.608 98.206,320.772 98.190 C 320.935 98.174,321.068 97.895,321.068 97.570 C 321.068 97.190,321.221 96.950,321.497 96.897 C 321.966 96.807,322.374 95.959,322.374 95.075 C 322.374 94.674,322.526 94.492,322.908 94.438 C 323.285 94.384,323.464 94.177,323.515 93.733 C 323.559 93.353,323.767 93.058,324.042 92.986 C 324.360 92.903,324.544 92.573,324.653 91.893 C 324.784 91.071,324.896 90.920,325.372 90.920 C 325.811 90.920,325.935 90.792,325.935 90.339 C 325.935 90.019,326.202 89.469,326.528 89.117 C 326.855 88.765,327.122 88.233,327.122 87.934 C 327.122 87.553,327.280 87.370,327.656 87.316 C 328.254 87.231,328.653 83.798,328.065 83.798 C 327.505 83.798,327.122 83.088,327.122 82.052 C 327.122 80.953,326.609 80.110,326.068 80.318 C 325.878 80.390,325.820 80.201,325.888 79.738 C 325.977 79.129,325.918 79.050,325.368 79.050 C 324.865 79.050,324.748 78.939,324.748 78.457 C 324.748 77.956,324.637 77.864,324.036 77.864 C 323.475 77.864,323.323 77.760,323.323 77.375 C 323.323 77.106,323.217 76.952,323.086 77.033 C 322.955 77.113,322.847 77.040,322.845 76.869 C 322.842 76.643,322.778 76.655,322.611 76.914 C 322.449 77.165,322.380 77.180,322.378 76.965 C 322.370 76.333,317.760 76.690,317.669 77.329 C 317.596 77.844,317.047 78.022,315.990 77.873 C 315.488 77.803,315.334 78.221,315.277 79.819 C 315.222 81.323,315.109 81.748,314.809 81.563 C 314.388 81.302,314.028 81.924,313.912 83.109 C 313.823 84.024,313.640 84.519,313.273 84.835 C 312.726 85.307,312.710 85.353,312.668 86.675 C 312.645 87.399,312.560 87.530,312.127 87.506 C 311.685 87.482,311.601 87.625,311.527 88.536 C 311.446 89.529,311.103 90.075,310.711 89.833 C 310.535 89.724,310.221 90.468,310.287 90.836 C 310.459 91.794,310.235 92.344,309.674 92.344 C 309.120 92.344,309.080 92.423,309.080 93.531 C 309.080 94.639,309.041 94.718,308.487 94.718 C 307.933 94.718,307.893 94.797,307.893 95.905 C 307.893 97.013,307.854 97.092,307.300 97.092 C 306.746 97.092,306.706 97.171,306.706 98.279 C 306.706 99.387,306.667 99.466,306.113 99.466 C 305.560 99.466,305.519 99.546,305.519 100.636 C 305.519 101.669,305.457 101.816,304.985 101.883 C 304.531 101.947,304.440 102.124,304.380 103.063 C 304.319 104.003,304.223 104.190,303.739 104.311 C 303.242 104.436,303.161 104.611,303.098 105.699 C 303.059 106.383,302.971 106.890,302.902 106.825 C 302.834 106.760,302.605 106.866,302.394 107.062 C 302.122 107.315,302.090 107.469,302.281 107.593 C 302.476 107.718,302.469 107.768,302.255 107.771 C 302.054 107.773,301.958 108.196,301.958 109.080 C 301.958 110.315,301.926 110.386,301.365 110.386 C 300.785 110.386,300.772 110.425,300.772 112.166 C 300.772 113.971,300.680 114.132,299.744 113.969 C 299.636 113.950,299.567 114.231,299.591 114.593 C 299.774 117.346,299.581 119.124,299.114 119.002 C 298.774 118.913,298.586 119.034,298.434 119.439 C 298.157 120.185,298.165 125.341,298.444 125.341 C 298.565 125.341,298.595 125.451,298.513 125.585 C 298.430 125.718,298.450 125.812,298.558 125.794 C 299.424 125.643,299.585 125.832,299.585 126.998 C 299.585 128.054,299.647 128.196,300.164 128.326 C 300.517 128.415,300.773 128.672,300.817 128.984 C 300.863 129.305,301.089 129.524,301.424 129.571 C 301.811 129.626,301.958 129.807,301.958 130.224 C 301.958 130.681,302.082 130.801,302.552 130.801 C 303.027 130.801,303.145 130.920,303.145 131.395 C 303.145 131.869,303.264 131.988,303.739 131.988 C 304.270 131.988,304.380 132.108,304.312 132.614 C 304.259 133.008,305.129 133.131,308.167 133.162 L 311.454 133.195 311.454 132.592 C 311.454 132.049,311.547 131.988,312.374 131.988 C 313.295 131.988,313.999 131.507,313.726 131.065 C 313.647 130.938,313.878 130.800,314.239 130.758 C 314.711 130.704,314.918 130.532,314.972 130.148 C 315.045 129.637,315.256 129.512,315.905 129.597 C 316.075 129.619,316.202 129.377,316.202 129.031 C 316.202 128.591,316.327 128.427,316.665 128.427 C 316.919 128.427,317.213 128.284,317.318 128.109 C 317.569 127.686,318.679 126.981,319.216 126.902 C 319.451 126.867,319.657 126.716,319.674 126.565 C 319.690 126.414,319.717 126.184,319.733 126.053 C 319.749 125.923,320.028 125.816,320.352 125.816 C 320.782 125.816,320.981 125.656,321.089 125.223 C 321.171 124.896,321.398 124.629,321.594 124.629 C 321.807 124.629,321.897 124.491,321.818 124.285 C 321.730 124.055,321.800 123.985,322.030 124.073 C 322.238 124.153,322.374 124.061,322.374 123.840 C 322.374 123.639,322.614 123.441,322.908 123.399 C 323.202 123.358,323.455 123.190,323.472 123.027 C 323.488 122.864,323.515 122.631,323.531 122.509 C 323.547 122.388,323.801 122.254,324.095 122.212 C 324.438 122.164,324.656 121.946,324.705 121.602 C 324.760 121.216,324.940 121.068,325.358 121.068 C 325.815 121.068,325.935 120.945,325.935 120.475 C 325.935 120.000,326.053 119.881,326.528 119.881 C 326.998 119.881,327.122 119.762,327.122 119.304 C 327.122 118.887,327.269 118.706,327.656 118.652 C 327.999 118.603,328.217 118.385,328.266 118.042 C 328.321 117.655,328.501 117.507,328.919 117.507 C 329.376 117.507,329.496 117.384,329.496 116.914 C 329.496 116.444,329.615 116.320,330.071 116.320 C 330.393 116.320,330.959 116.008,331.358 115.608 C 331.750 115.217,332.226 114.896,332.416 114.896 C 332.606 114.896,332.891 114.583,333.050 114.200 C 333.239 113.742,333.457 113.549,333.686 113.637 C 333.905 113.721,334.081 113.591,334.161 113.285 C 334.231 113.018,334.538 112.737,334.843 112.661 C 335.168 112.579,335.440 112.300,335.500 111.988 C 335.574 111.602,335.612 111.668,335.635 112.226 C 335.658 112.760,335.561 112.997,335.320 112.997 C 334.729 112.997,334.481 113.836,334.481 115.830 C 334.481 116.883,334.401 117.746,334.303 117.748 C 333.665 117.761,333.461 118.287,333.370 120.153 C 333.265 122.279,333.175 122.752,332.885 122.704 C 332.176 122.588,332.107 122.789,332.107 124.969 L 332.107 127.209 331.454 127.284 C 330.758 127.364,330.770 127.324,330.708 129.792 C 330.690 130.508,330.582 130.801,330.335 130.801 C 329.792 130.801,329.496 131.599,329.496 133.063 C 329.496 134.185,329.421 134.426,329.043 134.525 C 328.489 134.670,328.316 135.259,328.312 137.010 C 328.309 138.279,328.279 138.347,327.774 138.236 C 327.345 138.142,327.310 138.169,327.596 138.373 C 327.858 138.561,327.870 138.629,327.642 138.631 C 327.471 138.633,327.397 138.742,327.478 138.872 C 327.558 139.003,327.511 139.110,327.373 139.110 C 327.227 139.110,327.122 139.655,327.122 140.415 C 327.122 141.186,327.017 141.721,326.867 141.721 C 326.313 141.721,326.018 142.380,325.964 143.739 C 325.933 144.522,325.807 145.199,325.683 145.243 C 325.559 145.287,325.532 145.447,325.623 145.599 C 325.714 145.751,325.608 145.729,325.387 145.550 C 325.166 145.370,324.972 145.290,324.955 145.372 C 324.939 145.453,324.899 145.626,324.866 145.757 C 324.834 145.887,324.794 146.428,324.777 146.958 C 324.759 147.561,324.655 147.864,324.500 147.768 C 323.935 147.419,323.561 148.189,323.561 149.703 C 323.561 151.030,323.505 151.217,323.111 151.217 C 322.569 151.217,322.374 151.661,322.374 152.898 C 322.374 153.717,322.307 153.828,321.814 153.828 C 321.313 153.828,321.255 153.934,321.255 154.857 C 321.255 155.753,320.739 157.320,320.719 156.482 C 320.702 155.730,320.000 156.930,320.000 157.712 C 320.000 158.335,319.881 158.581,319.525 158.694 C 319.264 158.777,319.034 158.971,319.014 159.126 C 318.994 159.280,318.953 159.513,318.923 159.644 C 318.893 159.774,318.855 160.175,318.840 160.534 C 318.824 160.937,318.680 161.187,318.465 161.187 C 318.023 161.187,317.626 161.921,317.626 162.737 C 317.626 163.169,317.476 163.407,317.149 163.493 C 316.687 163.614,316.526 163.977,316.387 165.223 C 316.341 165.631,316.154 165.840,315.786 165.892 C 315.324 165.958,315.252 166.110,315.252 167.019 C 315.252 167.598,315.145 168.071,315.015 168.071 C 314.479 168.071,313.828 169.047,313.828 169.852 C 313.828 170.522,313.737 170.682,313.358 170.682 C 313.050 170.682,312.834 170.895,312.733 171.296 C 312.649 171.633,312.326 172.163,312.017 172.472 C 311.707 172.782,311.454 173.299,311.454 173.623 C 311.454 174.051,311.310 174.231,310.920 174.286 C 310.505 174.345,310.369 174.542,310.309 175.168 C 310.231 175.981,309.803 176.617,309.334 176.617 C 309.195 176.617,309.080 176.884,309.080 177.211 C 309.080 177.537,308.973 177.818,308.843 177.834 C 308.712 177.850,308.482 177.877,308.331 177.893 C 308.180 177.909,308.026 178.135,307.988 178.393 C 307.950 178.652,307.804 178.902,307.664 178.949 C 307.092 179.140,306.706 179.784,306.706 180.551 C 306.706 181.204,306.613 181.365,306.236 181.365 C 305.935 181.365,305.713 181.574,305.620 181.945 C 305.532 182.298,305.274 182.553,304.963 182.598 C 304.647 182.643,304.423 182.869,304.377 183.190 C 304.331 183.514,304.107 183.738,303.784 183.784 C 303.417 183.836,303.242 184.049,303.189 184.510 C 303.129 185.032,302.992 185.163,302.511 185.163 C 302.104 185.163,301.947 185.267,302.030 185.481 C 302.203 185.933,301.817 186.464,301.316 186.467 C 301.049 186.468,300.890 186.646,300.890 186.944 C 300.890 187.286,300.707 187.439,300.231 187.494 C 299.868 187.536,299.587 187.696,299.606 187.850 C 299.689 188.518,299.550 188.724,299.016 188.724 C 298.452 188.724,298.037 189.281,298.292 189.695 C 298.366 189.814,298.259 189.924,298.056 189.941 C 297.852 189.957,297.552 189.984,297.389 190.000 C 297.226 190.016,297.059 190.263,297.018 190.549 C 296.972 190.873,296.748 191.097,296.425 191.143 C 296.096 191.189,295.877 191.413,295.829 191.751 C 295.774 192.137,295.594 192.285,295.176 192.285 C 294.859 192.285,294.599 192.399,294.599 192.539 C 294.599 193.008,293.963 193.436,293.150 193.514 C 292.524 193.573,292.327 193.710,292.268 194.125 C 292.213 194.511,292.033 194.659,291.616 194.659 C 291.162 194.659,291.039 194.783,291.039 195.239 C 291.039 195.763,290.929 195.827,289.911 195.892 C 288.957 195.953,288.772 196.045,288.709 196.486 C 288.647 196.926,288.461 197.019,287.522 197.080 C 286.575 197.141,286.398 197.231,286.334 197.685 C 286.267 198.157,286.120 198.220,285.087 198.220 C 284.271 198.220,283.917 198.315,283.917 198.536 C 283.917 199.035,282.983 199.363,281.216 199.483 C 279.720 199.585,279.355 199.746,279.114 200.412 C 279.079 200.508,277.582 200.602,275.786 200.621 C 273.991 200.640,272.522 200.722,272.522 200.805 C 272.522 200.887,272.180 200.953,271.761 200.952 C 271.208 200.950,270.926 201.096,270.731 201.483 L 270.461 202.016 270.206 201.457 C 269.887 200.755,268.760 200.587,264.866 200.660 C 263.332 200.689,262.077 200.632,262.077 200.534 C 262.077 200.436,262.084 200.293,262.093 200.216 C 262.140 199.802,261.096 199.421,259.898 199.414 C 258.683 199.407,258.542 199.354,258.473 198.872 C 258.409 198.418,258.232 198.328,257.285 198.267 C 256.346 198.206,256.161 198.113,256.098 197.673 C 256.057 197.386,255.864 197.137,255.668 197.119 C 255.472 197.102,255.178 197.075,255.015 197.060 C 254.852 197.045,254.718 196.819,254.718 196.558 C 254.718 196.297,254.611 196.070,254.481 196.053 C 254.350 196.037,254.136 195.997,254.006 195.964 C 253.875 195.932,253.582 195.883,253.353 195.857 C 253.093 195.826,253.049 195.763,253.234 195.688 C 253.759 195.477,253.555 195.155,252.582 194.659 C 251.610 194.163,251.302 193.845,252.047 194.108 C 252.364 194.219,252.400 194.185,252.197 193.965 C 252.051 193.806,251.733 193.647,251.490 193.612 C 251.202 193.569,251.047 193.348,251.044 192.975 C 251.040 192.565,250.888 192.382,250.504 192.328 C 250.118 192.273,249.970 192.092,249.970 191.675 C 249.970 191.218,249.847 191.098,249.377 191.098 C 248.855 191.098,248.783 190.996,248.783 190.250 C 248.783 189.421,248.358 188.724,247.851 188.724 C 247.711 188.724,247.596 188.358,247.596 187.910 C 247.596 187.138,247.108 186.350,246.630 186.350 C 246.509 186.350,246.409 185.818,246.409 185.168 C 246.409 184.104,246.350 183.970,245.816 183.836 C 245.255 183.696,245.223 183.597,245.223 182.067 C 245.223 180.235,244.930 179.228,244.398 179.228 C 244.097 179.228,244.035 178.815,244.031 176.795 C 244.020 170.782,243.761 168.546,243.078 168.546 C 242.659 168.546,242.841 167.891,243.292 167.773 C 243.867 167.623,244.070 166.293,244.035 162.918 C 244.020 161.509,244.014 160.234,244.022 160.085 C 244.029 159.936,244.303 159.747,244.629 159.665 C 245.222 159.516,245.223 159.515,245.223 156.570 C 245.223 153.695,245.236 153.622,245.757 153.548 C 246.357 153.462,246.350 153.499,246.386 149.970 C 246.409 147.666,246.412 147.656,247.003 147.656 C 247.471 147.656,247.596 147.535,247.596 147.088 C 247.596 146.680,247.764 146.478,248.190 146.371 C 248.814 146.215,248.957 145.788,248.528 145.359 C 248.346 145.177,248.455 145.138,248.909 145.225 C 249.610 145.359,249.961 145.011,249.967 144.177 C 249.969 143.792,250.082 143.694,250.418 143.782 C 250.665 143.846,250.949 143.765,251.051 143.601 C 251.184 143.384,251.110 143.346,250.781 143.462 C 250.356 143.611,250.353 143.600,250.742 143.298 C 250.981 143.112,251.157 142.657,251.157 142.229 C 251.157 141.592,251.244 141.484,251.751 141.484 C 252.305 141.484,252.344 141.405,252.344 140.297 C 252.344 139.189,252.384 139.110,252.938 139.110 C 253.490 139.110,253.531 139.030,253.531 137.939 C 253.531 136.906,253.594 136.760,254.065 136.693 C 254.792 136.590,255.059 133.412,254.341 133.412 C 254.113 133.412,253.988 133.351,254.064 133.275 C 254.139 133.200,255.653 133.142,257.427 133.145 C 259.293 133.150,260.668 133.057,260.688 132.926 C 260.708 132.802,260.735 132.567,260.748 132.404 C 260.762 132.226,261.250 132.059,261.958 131.988 C 262.965 131.887,263.157 131.788,263.221 131.335 C 263.281 130.917,263.452 130.801,264.008 130.801 C 264.826 130.801,265.709 130.396,265.529 130.104 C 265.385 129.871,266.119 129.202,266.327 129.377 C 266.405 129.442,266.574 129.255,266.703 128.961 C 266.847 128.634,267.145 128.427,267.475 128.427 C 267.770 128.427,268.012 128.313,268.012 128.173 C 268.012 127.771,268.609 127.278,269.308 127.103 C 269.660 127.014,270.064 126.689,270.205 126.379 C 270.369 126.020,270.663 125.816,271.017 125.816 C 271.421 125.816,271.573 125.682,271.573 125.324 C 271.573 124.698,272.190 124.022,272.369 124.453 C 272.440 124.627,272.559 124.522,272.657 124.195 C 272.749 123.892,273.072 123.549,273.374 123.434 C 273.752 123.291,273.895 123.077,273.832 122.751 C 273.773 122.443,273.897 122.227,274.188 122.135 C 274.433 122.057,274.701 121.785,274.781 121.531 C 274.862 121.276,275.028 121.068,275.150 121.068 C 275.271 121.068,275.358 120.988,275.343 120.890 C 275.221 120.120,275.414 119.726,275.905 119.744 C 276.285 119.757,276.461 119.609,276.515 119.228 C 276.570 118.842,276.750 118.694,277.168 118.694 C 277.609 118.694,277.745 118.568,277.745 118.157 C 277.745 117.828,277.951 117.529,278.279 117.386 C 278.689 117.206,278.830 116.921,278.885 116.157 C 278.945 115.342,279.051 115.150,279.479 115.089 C 279.789 115.045,280.028 114.820,280.069 114.533 C 280.107 114.268,280.374 113.947,280.662 113.821 C 281.059 113.646,281.216 113.331,281.306 112.522 C 281.402 111.652,281.512 111.454,281.899 111.454 C 282.304 111.454,282.384 111.272,282.446 110.208 C 282.512 109.063,282.565 108.961,283.098 108.961 C 283.637 108.961,283.680 108.876,283.680 107.774 C 283.680 106.610,283.788 106.466,284.583 106.573 C 284.754 106.596,284.875 106.475,284.852 106.304 C 284.630 104.650,284.893 103.056,285.401 102.984 C 285.891 102.914,285.940 102.766,286.004 101.187 C 286.064 99.729,286.163 99.378,286.657 98.884 C 287.200 98.341,287.240 98.133,287.240 95.899 C 287.240 93.623,287.659 92.137,288.024 93.118 C 288.454 94.276,288.631 91.214,288.655 82.205 C 288.682 71.945,288.617 71.147,287.729 70.865 C 287.315 70.733,287.240 70.513,287.240 69.420 C 287.240 68.203,287.207 68.131,286.647 68.131 C 286.228 68.131,286.053 68.002,286.053 67.693 C 286.053 67.452,285.831 67.053,285.559 66.807 C 285.287 66.561,284.919 66.010,284.740 65.583 C 284.517 65.050,284.245 64.796,283.870 64.771 C 283.569 64.751,283.185 64.723,283.017 64.710 C 282.621 64.677,282.267 64.103,282.411 63.727 C 282.604 63.225,271.507 63.245,271.005 63.747 C 270.795 63.957,270.623 64.222,270.623 64.336 C 270.623 64.450,270.116 64.576,269.496 64.616 C 268.542 64.677,268.357 64.769,268.294 65.210 C 268.231 65.650,268.045 65.743,267.107 65.804 C 266.232 65.860,266.001 65.962,266.025 66.278 C 266.044 66.522,265.788 66.773,265.372 66.918 C 264.996 67.049,264.687 67.082,264.685 66.991 C 264.683 66.899,264.547 67.092,264.382 67.418 C 264.174 67.830,263.829 68.048,263.258 68.131 C 262.705 68.210,262.357 68.422,262.203 68.774 C 262.076 69.062,261.756 69.329,261.491 69.367 C 261.199 69.409,260.979 69.647,260.933 69.970 C 260.878 70.357,260.698 70.504,260.280 70.504 C 259.963 70.504,259.703 70.619,259.703 70.759 C 259.703 71.027,259.122 71.691,258.887 71.691 C 258.463 71.691,257.323 73.029,257.382 73.458 C 257.433 73.835,257.299 73.964,256.795 74.022 C 256.253 74.084,256.142 74.211,256.142 74.777 C 256.142 75.301,256.020 75.474,255.608 75.532 C 255.265 75.581,255.047 75.799,254.998 76.142 C 254.943 76.529,254.763 76.677,254.346 76.677 C 253.888 76.677,253.769 76.800,253.769 77.270 C 253.769 77.639,253.634 77.864,253.412 77.864 C 253.217 77.864,253.056 77.977,253.056 78.115 C 253.056 78.253,252.950 78.300,252.819 78.220 C 252.681 78.134,252.582 78.370,252.582 78.782 C 252.582 79.255,252.384 79.646,251.988 79.958 C 251.662 80.214,251.395 80.642,251.395 80.909 C 251.395 81.260,251.216 81.413,250.742 81.468 C 250.236 81.526,250.073 81.685,250.016 82.172 C 249.972 82.552,249.764 82.847,249.489 82.919 C 249.171 83.002,248.987 83.332,248.878 84.012 C 248.793 84.547,248.622 84.985,248.499 84.985 C 248.023 84.985,247.596 85.699,247.596 86.495 C 247.596 87.169,247.498 87.340,247.076 87.402 C 246.721 87.454,246.495 87.714,246.364 88.223 C 246.235 88.724,246.036 88.957,245.757 88.935 C 245.345 88.902,245.305 89.028,245.248 90.504 C 245.227 91.036,245.112 91.157,244.629 91.157 C 244.075 91.157,244.036 91.236,244.036 92.344 C 244.036 93.457,243.998 93.531,243.432 93.531 C 243.086 93.531,242.844 93.658,242.866 93.828 C 243.032 95.106,242.825 95.860,242.268 95.999 C 241.769 96.125,241.677 96.303,241.615 97.271 C 241.571 97.954,241.426 98.409,241.246 98.427 C 240.377 98.514,240.359 98.525,240.712 98.754 C 240.975 98.924,240.986 98.985,240.755 98.987 C 240.522 98.990,240.457 99.374,240.502 100.474 C 240.549 101.623,240.486 101.962,240.222 101.981 C 240.035 101.994,239.748 102.021,239.585 102.041 C 239.204 102.087,239.145 119.626,239.525 119.674 C 239.656 119.690,239.896 119.717,240.059 119.733 C 240.262 119.753,240.378 120.346,240.425 121.602 C 240.492 123.379,240.515 123.442,241.078 123.442 C 241.620 123.442,241.662 123.527,241.662 124.629 C 241.662 125.737,241.701 125.816,242.255 125.816 C 242.809 125.816,242.849 125.895,242.849 127.003 C 242.849 127.656,242.955 128.203,243.086 128.220 C 243.217 128.236,243.452 128.263,243.609 128.279 C 243.767 128.295,243.959 128.576,244.036 128.902 C 244.125 129.278,244.343 129.496,244.630 129.496 C 244.917 129.497,245.134 129.714,245.222 130.090 C 245.309 130.464,245.554 130.710,245.885 130.758 C 246.174 130.800,246.409 130.940,246.409 131.069 C 246.409 131.198,246.543 131.224,246.706 131.126 C 246.943 130.984,246.943 131.021,246.708 131.312 C 246.326 131.784,246.613 132.072,247.086 131.689 C 247.377 131.454,247.414 131.455,247.272 131.691 C 247.148 131.897,247.276 131.988,247.688 131.988 C 248.862 131.988,249.102 132.872,248.179 133.795 C 247.737 134.237,247.262 134.599,247.124 134.599 C 246.986 134.599,246.771 134.866,246.647 135.193 C 246.523 135.519,246.256 135.786,246.054 135.786 C 245.852 135.786,245.565 136.053,245.417 136.380 C 245.166 136.930,244.925 137.081,244.433 136.996 C 244.326 136.977,244.305 137.071,244.388 137.205 C 244.471 137.339,244.425 137.448,244.287 137.448 C 244.149 137.448,244.036 137.561,244.036 137.699 C 244.036 137.838,244.125 137.896,244.233 137.829 C 244.342 137.761,244.431 137.850,244.431 138.025 C 244.431 138.241,244.216 138.310,243.766 138.239 C 243.198 138.149,243.078 138.231,242.937 138.800 C 242.846 139.166,242.580 139.602,242.345 139.769 C 242.110 139.936,241.848 140.444,241.763 140.897 C 241.638 141.564,241.501 141.721,241.042 141.721 C 240.600 141.721,240.475 141.848,240.475 142.298 C 240.475 142.716,240.327 142.896,239.941 142.951 C 239.533 143.009,239.398 143.195,239.369 143.739 C 239.348 144.131,239.322 144.638,239.310 144.866 C 239.295 145.146,239.093 145.282,238.694 145.282 C 238.368 145.282,238.114 145.362,238.129 145.460 C 238.321 146.675,238.063 147.656,237.552 147.656 C 237.064 147.656,236.996 147.780,236.945 148.768 C 236.881 150.003,236.752 150.342,236.423 150.138 C 236.301 150.063,236.202 150.121,236.202 150.267 C 236.202 150.416,236.072 150.454,235.905 150.354 C 235.732 150.250,235.757 150.362,235.964 150.623 C 236.172 150.884,236.197 150.996,236.024 150.892 C 235.798 150.757,235.727 151.088,235.727 152.271 C 235.727 153.762,235.703 153.828,235.150 153.828 C 234.422 153.828,234.319 154.175,234.343 156.542 C 234.360 158.216,234.310 158.444,233.888 158.600 C 233.137 158.878,233.105 159.399,233.125 170.939 C 233.145 182.487,233.149 182.552,233.853 182.552 C 234.254 182.552,234.303 182.743,234.303 184.311 C 234.303 185.975,234.342 186.103,235.015 186.670 C 235.634 187.190,235.727 187.427,235.727 188.471 C 235.727 189.595,235.766 189.674,236.320 189.674 C 236.938 189.674,237.019 189.906,236.921 191.395 C 236.898 191.754,236.993 192.061,237.133 192.077 C 237.274 192.093,237.521 192.120,237.682 192.136 C 237.844 192.153,238.015 192.380,238.064 192.641 C 238.112 192.902,238.252 193.239,238.374 193.389 C 238.517 193.566,238.493 193.697,238.306 193.759 C 237.836 193.916,238.345 194.475,238.840 194.346 C 239.254 194.237,239.454 194.793,239.316 195.668 C 239.300 195.766,239.543 195.846,239.855 195.846 C 240.315 195.846,240.451 196.002,240.577 196.674 C 240.663 197.129,240.934 197.610,241.181 197.741 C 241.427 197.873,241.663 198.222,241.704 198.516 C 241.746 198.810,242.016 199.154,242.305 199.281 C 242.593 199.407,242.860 199.728,242.898 199.993 C 242.940 200.284,243.178 200.505,243.501 200.551 C 243.888 200.606,244.036 200.786,244.036 201.203 C 244.036 201.654,244.160 201.780,244.603 201.780 C 245.013 201.780,245.213 201.948,245.322 202.384 C 245.406 202.715,245.556 202.936,245.656 202.874 C 245.893 202.728,246.520 203.116,246.558 203.433 C 246.574 203.569,246.601 203.786,246.617 203.917 C 246.634 204.047,246.914 204.154,247.240 204.154 C 247.567 204.154,247.847 204.261,247.864 204.392 C 247.880 204.522,247.907 204.763,247.923 204.926 C 247.940 205.098,248.369 205.253,248.947 205.295 C 249.829 205.359,249.950 205.440,250.015 206.007 C 250.073 206.506,250.233 206.663,250.742 206.722 C 251.335 206.790,251.512 207.008,251.417 207.555 C 251.398 207.662,251.492 207.683,251.626 207.600 C 251.760 207.517,251.869 207.570,251.869 207.716 C 251.869 207.863,252.056 207.963,252.285 207.940 C 253.355 207.831,253.987 207.963,253.869 208.271 C 253.761 208.551,254.423 209.352,254.636 209.199 C 255.091 208.871,256.321 209.195,256.211 209.614 C 256.143 209.875,256.206 210.102,256.352 210.119 C 256.498 210.135,256.724 210.175,256.855 210.208 C 256.985 210.240,257.387 210.280,257.748 210.297 C 258.183 210.316,258.483 210.506,258.638 210.861 C 258.843 211.327,259.076 211.404,260.475 211.465 C 261.811 211.523,262.175 211.633,262.667 212.125 L 263.258 212.715 273.134 212.649 C 282.999 212.582,283.010 212.581,283.434 212.057 C 283.793 211.614,284.122 211.525,285.543 211.489 C 286.470 211.466,287.190 211.382,287.145 211.302 C 286.782 210.665,287.454 210.239,288.728 210.298 C 290.150 210.364,291.039 210.052,291.039 209.487 C 291.039 209.272,291.288 209.130,291.691 209.114 C 293.085 209.060,293.249 209.007,293.312 208.584 C 293.402 207.978,293.439 207.959,294.620 207.892 C 295.504 207.843,295.679 207.751,295.744 207.300 C 295.805 206.867,295.971 206.766,296.614 206.766 C 297.771 206.766,298.160 206.550,298.160 205.909 C 298.160 205.495,298.292 205.341,298.646 205.341 C 298.914 205.341,299.368 205.069,299.655 204.737 C 299.963 204.381,300.471 204.110,300.890 204.078 C 301.423 204.038,301.602 203.906,301.602 203.555 C 301.602 203.220,301.789 203.065,302.255 203.011 C 302.768 202.952,302.908 202.812,302.908 202.358 C 302.908 201.874,303.024 201.780,303.620 201.780 C 304.222 201.780,304.332 201.688,304.332 201.187 C 304.332 200.723,304.454 200.593,304.887 200.593 C 305.203 200.593,305.713 200.288,306.075 199.881 C 306.424 199.490,306.869 199.169,307.064 199.169 C 307.259 199.169,307.418 199.066,307.418 198.939 C 307.418 198.812,308.059 198.070,308.843 197.289 C 309.840 196.295,310.267 195.688,310.267 195.264 C 310.267 194.777,310.383 194.659,310.861 194.659 C 311.331 194.659,311.454 194.539,311.454 194.082 C 311.454 193.665,311.602 193.484,311.987 193.429 C 312.334 193.380,312.561 193.146,312.639 192.760 C 312.719 192.365,312.918 192.166,313.234 192.166 C 313.496 192.166,313.723 192.033,313.739 191.869 C 313.755 191.706,313.782 191.477,313.798 191.361 C 313.815 191.245,314.095 191.082,314.421 191.000 C 314.799 190.906,315.015 190.684,315.015 190.392 C 315.015 190.139,315.282 189.665,315.608 189.339 C 315.982 188.966,316.202 188.477,316.202 188.023 C 316.202 187.410,316.292 187.300,316.795 187.300 C 317.235 187.300,317.389 187.174,317.389 186.815 C 317.389 186.548,317.609 186.094,317.878 185.806 C 318.303 185.351,318.345 185.342,318.194 185.736 C 318.073 186.054,318.104 186.139,318.298 186.019 C 318.451 185.925,318.576 185.373,318.576 184.793 C 318.576 183.827,318.625 183.739,319.169 183.739 C 319.633 183.739,319.763 183.618,319.763 183.184 C 319.763 182.822,319.969 182.534,320.352 182.360 C 320.787 182.161,320.982 181.840,321.095 181.134 C 321.210 180.413,321.357 180.178,321.692 180.178 C 321.937 180.178,322.142 180.151,322.149 180.119 C 322.155 180.086,322.220 179.579,322.293 178.991 C 322.444 177.778,322.493 177.693,323.043 177.688 C 323.293 177.687,323.452 177.480,323.470 177.137 C 323.485 176.835,323.733 176.423,324.020 176.222 C 324.307 176.020,324.485 175.707,324.415 175.524 C 324.345 175.342,324.391 175.193,324.518 175.193 C 324.644 175.193,324.748 174.926,324.748 174.599 C 324.748 174.236,324.883 174.006,325.096 174.006 C 325.536 174.006,325.935 173.273,325.935 172.462 C 325.935 172.117,326.095 171.675,326.291 171.479 C 326.565 171.205,326.648 171.195,326.651 171.437 C 326.653 171.669,326.714 171.658,326.884 171.395 C 327.011 171.199,327.116 170.658,327.118 170.194 C 327.120 169.729,327.282 169.142,327.478 168.888 C 327.830 168.434,327.833 168.434,327.696 168.902 C 327.560 169.370,327.563 169.371,327.933 168.916 C 328.140 168.663,328.309 168.048,328.309 167.551 C 328.309 166.899,328.410 166.647,328.671 166.647 C 329.144 166.647,329.496 165.687,329.496 164.393 C 329.496 163.499,329.569 163.346,330.030 163.281 C 330.484 163.216,330.575 163.039,330.635 162.100 C 330.696 161.153,330.790 160.974,331.288 160.849 C 331.803 160.720,331.869 160.574,331.869 159.577 C 331.869 158.637,331.958 158.412,332.404 158.217 C 332.882 158.007,332.938 157.814,332.938 156.379 C 332.938 154.810,332.951 154.777,333.557 154.777 C 334.164 154.777,334.178 154.742,334.220 153.066 C 334.268 151.143,334.245 151.205,334.929 151.153 C 335.364 151.121,335.430 150.966,335.430 149.973 C 335.430 148.973,335.504 148.803,336.024 148.605 C 336.350 148.481,336.623 148.297,336.631 148.196 C 336.818 145.682,336.931 145.178,337.385 144.810 C 337.749 144.515,337.907 144.048,337.993 143.018 C 338.076 142.017,338.240 141.518,338.573 141.248 C 339.049 140.863,339.187 140.164,339.213 137.999 C 339.227 136.910,339.290 136.760,339.763 136.693 C 340.253 136.623,340.302 136.475,340.366 134.896 C 340.406 133.921,340.542 133.175,340.680 133.175 C 341.040 133.175,341.632 132.520,341.586 132.171 C 341.352 130.391,341.633 128.456,342.136 128.384 C 342.631 128.314,342.676 128.171,342.740 126.469 C 342.802 124.824,342.859 124.629,343.274 124.629 C 343.530 124.629,343.748 124.549,343.759 124.451 C 343.942 122.799,343.927 122.362,343.677 122.053 C 343.443 121.763,343.443 121.725,343.680 121.868 C 343.900 122.000,343.976 121.766,343.976 120.964 C 343.976 120.368,344.083 119.868,344.214 119.852 C 344.344 119.835,344.585 119.809,344.748 119.792 C 345.082 119.759,345.093 119.706,345.134 117.761 C 345.160 116.493,345.216 116.346,345.697 116.278 C 346.192 116.207,346.237 116.065,346.301 114.362 C 346.354 112.962,346.451 112.522,346.708 112.522 C 347.285 112.522,347.537 111.677,347.537 109.745 C 347.537 108.046,347.583 107.867,348.071 107.653 C 348.608 107.417,348.643 107.269,348.704 104.985 C 348.721 104.326,348.810 104.214,349.318 104.214 C 349.898 104.214,349.911 104.174,349.911 102.433 C 349.911 100.680,349.920 100.653,350.520 100.653 C 351.124 100.653,351.129 100.636,351.074 98.932 L 351.018 97.211 351.711 97.091 C 352.361 96.978,352.408 96.894,352.475 95.726 C 352.536 94.679,352.620 94.481,353.005 94.481 C 353.295 94.481,353.517 94.264,353.612 93.887 C 353.694 93.561,353.919 93.294,354.113 93.294 C 354.307 93.294,354.520 93.085,354.587 92.830 C 354.654 92.575,354.955 92.205,355.256 92.007 C 355.558 91.810,355.871 91.347,355.952 90.978 C 356.032 90.610,356.362 90.111,356.684 89.869 C 357.006 89.627,357.270 89.230,357.270 88.988 C 357.270 88.672,357.444 88.546,357.878 88.546 C 358.373 88.546,358.473 88.446,358.413 88.012 C 358.353 87.583,358.467 87.463,358.991 87.403 C 359.504 87.344,359.644 87.204,359.644 86.750 C 359.644 86.292,359.767 86.172,360.237 86.172 C 360.712 86.172,360.831 86.053,360.831 85.579 C 360.831 85.104,360.950 84.985,361.424 84.985 C 361.899 84.985,362.018 84.866,362.018 84.392 C 362.018 84.065,362.125 83.785,362.255 83.769 C 362.386 83.752,362.621 83.726,362.779 83.709 C 362.936 83.693,363.123 83.433,363.194 83.131 C 363.265 82.830,363.384 82.616,363.459 82.657 C 363.650 82.760,364.392 81.985,364.392 81.683 C 364.392 81.546,364.669 81.364,365.008 81.279 C 365.463 81.165,365.540 81.071,365.304 80.922 C 365.067 80.772,365.062 80.718,365.282 80.716 C 365.445 80.714,365.552 80.585,365.519 80.430 C 365.487 80.274,365.674 80.101,365.935 80.046 C 366.575 79.910,366.758 79.572,366.762 78.516 C 366.765 77.686,366.814 77.626,367.478 77.626 C 367.869 77.626,368.177 77.546,368.162 77.448 C 368.051 76.747,368.241 76.439,368.783 76.439 C 369.258 76.439,369.377 76.320,369.377 75.846 C 369.377 75.519,369.484 75.239,369.614 75.223 C 369.745 75.206,369.977 75.180,370.131 75.163 C 370.285 75.147,370.493 74.826,370.594 74.451 C 370.694 74.075,370.995 73.563,371.263 73.314 C 371.531 73.064,371.751 72.604,371.751 72.292 C 371.751 71.884,371.901 71.703,372.285 71.649 C 372.648 71.597,372.844 71.383,372.898 70.979 C 372.942 70.653,373.091 70.279,373.230 70.148 C 373.402 69.986,373.429 70.005,373.315 70.208 C 373.222 70.371,373.239 70.504,373.351 70.504 C 373.801 70.504,374.125 69.887,374.125 69.028 C 374.125 68.283,374.234 68.070,374.737 67.841 L 375.349 67.562 375.271 64.739 C 375.200 62.155,375.148 61.879,374.664 61.488 C 374.257 61.159,374.125 60.783,374.093 59.860 C 374.069 59.200,373.987 58.667,373.909 58.676 C 373.129 58.763,372.938 58.588,372.938 57.789 C 372.938 56.779,372.579 56.024,372.098 56.024 C 371.907 56.024,371.751 55.889,371.751 55.725 C 371.751 54.880,364.486 54.362,363.697 55.151 M223.997 63.976 C 223.695 64.303,223.219 64.570,222.940 64.570 C 222.661 64.570,222.433 64.688,222.433 64.833 C 222.433 64.985,222.608 65.029,222.849 64.937 C 223.161 64.817,223.133 64.900,222.737 65.270 C 222.406 65.579,221.833 65.782,221.194 65.818 C 220.342 65.866,220.166 65.962,220.102 66.409 C 220.060 66.703,219.874 66.957,219.687 66.973 C 219.500 66.990,219.214 67.016,219.050 67.033 C 218.887 67.049,218.720 67.296,218.680 67.582 C 218.634 67.905,218.410 68.129,218.086 68.175 C 217.754 68.223,217.567 68.417,217.566 68.713 C 217.566 69.012,217.353 69.229,216.973 69.321 C 216.538 69.426,216.381 69.620,216.385 70.049 C 216.389 70.518,216.272 70.632,215.791 70.628 C 215.354 70.625,215.173 70.763,215.119 71.143 C 215.073 71.466,214.849 71.690,214.525 71.736 C 214.202 71.782,213.978 72.006,213.932 72.330 C 213.886 72.653,213.662 72.877,213.339 72.923 C 213.022 72.968,212.791 73.193,212.747 73.499 C 212.708 73.775,212.414 74.119,212.095 74.265 C 211.762 74.417,211.513 74.731,211.513 75.001 C 211.513 75.261,211.306 75.584,211.052 75.720 C 210.775 75.868,210.511 76.368,210.390 76.974 C 210.218 77.831,210.109 77.971,209.664 77.908 C 209.240 77.848,209.139 77.950,209.139 78.442 C 209.139 79.009,208.942 79.154,208.279 79.075 C 208.132 79.058,208.012 79.294,208.012 79.600 C 208.012 79.906,207.731 80.437,207.389 80.780 C 207.043 81.126,206.766 81.671,206.766 82.007 C 206.766 82.493,206.650 82.611,206.172 82.611 C 205.700 82.611,205.579 82.731,205.579 83.194 C 205.579 83.514,205.312 84.044,204.985 84.370 C 204.659 84.697,204.392 85.228,204.392 85.551 C 204.392 85.980,204.247 86.160,203.858 86.215 C 203.402 86.280,203.313 86.456,203.251 87.418 C 203.209 88.074,203.060 88.557,202.895 88.573 C 202.739 88.588,202.451 88.615,202.255 88.633 C 202.059 88.650,201.885 88.825,201.867 89.021 C 201.850 89.217,201.823 89.498,201.808 89.646 C 201.793 89.794,201.553 89.975,201.274 90.047 C 200.902 90.145,200.802 90.309,200.896 90.668 C 200.966 90.937,200.927 91.157,200.809 91.157 C 200.690 91.157,200.593 91.406,200.593 91.711 C 200.593 92.058,200.372 92.382,200.000 92.582 C 199.528 92.834,199.407 93.083,199.407 93.792 C 199.407 94.537,199.318 94.698,198.872 94.761 C 198.457 94.820,198.321 95.017,198.261 95.643 C 198.187 96.420,197.759 97.092,197.339 97.092 C 197.227 97.092,197.113 97.374,197.084 97.718 C 197.056 98.062,196.766 98.611,196.439 98.937 C 196.082 99.294,195.846 99.802,195.846 100.210 C 195.846 100.661,195.724 100.890,195.484 100.890 C 195.079 100.890,194.659 101.805,194.659 102.686 C 194.659 103.111,194.530 103.264,194.170 103.264 C 193.901 103.264,193.747 103.371,193.828 103.501 C 193.909 103.632,193.868 103.739,193.738 103.739 C 193.607 103.739,193.467 104.128,193.427 104.603 C 193.307 106.010,192.286 106.238,192.281 104.859 C 192.278 103.835,191.962 103.033,191.676 103.319 C 190.983 104.012,190.846 102.729,190.835 95.499 L 190.824 88.190 191.555 87.579 C 192.156 87.076,192.285 86.793,192.285 85.977 C 192.285 85.264,192.383 84.985,192.633 84.985 C 193.082 84.985,193.472 84.247,193.472 83.395 C 193.472 82.927,193.633 82.653,194.006 82.490 C 194.416 82.309,194.557 82.025,194.612 81.261 C 194.672 80.446,194.778 80.254,195.206 80.193 C 195.549 80.144,195.755 79.923,195.808 79.546 C 195.852 79.231,196.095 78.803,196.347 78.596 C 197.183 77.908,197.143 75.355,196.299 75.536 C 196.040 75.592,195.949 75.217,195.894 73.877 C 195.831 72.313,195.770 72.121,195.254 71.886 C 194.940 71.743,194.651 71.405,194.612 71.134 C 194.568 70.836,194.306 70.588,193.947 70.503 C 193.620 70.427,193.351 70.262,193.349 70.138 C 193.342 69.687,192.947 69.296,192.561 69.359 C 192.344 69.395,191.877 69.133,191.524 68.777 C 190.849 68.097,186.398 67.747,186.320 68.368 C 186.304 68.499,186.277 68.703,186.261 68.823 C 186.206 69.224,185.657 69.427,184.331 69.535 C 184.200 69.546,183.953 69.870,183.783 70.254 C 183.584 70.704,183.351 70.907,183.131 70.822 C 182.943 70.750,182.787 70.729,182.784 70.776 C 182.651 72.723,182.439 73.532,181.934 74.016 C 181.412 74.514,181.365 74.745,181.365 76.805 C 181.365 78.643,181.300 79.050,181.009 79.050 C 180.813 79.050,180.653 79.164,180.653 79.302 C 180.653 79.440,180.547 79.488,180.418 79.408 C 180.263 79.312,180.202 83.423,180.239 91.391 C 180.299 103.960,180.279 103.685,181.172 104.032 C 181.261 104.067,181.368 105.163,181.409 106.469 C 181.480 108.712,181.513 108.847,182.009 108.917 C 182.505 108.988,182.539 109.123,182.603 111.291 C 182.665 113.416,182.711 113.608,183.205 113.825 C 183.689 114.037,184.003 116.143,183.764 117.576 C 183.702 117.945,184.233 118.689,184.517 118.633 C 184.716 118.594,184.844 119.130,184.926 120.346 C 185.035 121.978,185.089 122.128,185.617 122.251 C 186.155 122.377,186.187 122.481,186.165 123.991 C 186.141 125.580,186.148 125.598,186.830 125.734 C 187.509 125.870,187.519 125.895,187.587 127.684 C 187.650 129.331,187.702 129.502,188.166 129.568 C 188.446 129.608,188.730 129.848,188.796 130.101 C 188.862 130.354,189.113 130.637,189.354 130.729 C 189.595 130.821,189.953 131.094,190.149 131.336 C 190.499 131.768,190.970 131.934,191.948 131.970 C 192.302 131.983,192.436 132.139,192.422 132.522 C 192.404 133.045,192.467 133.058,195.312 133.123 L 198.220 133.190 198.220 132.589 C 198.220 132.106,198.336 131.988,198.813 131.988 C 199.327 131.988,199.407 131.883,199.407 131.198 C 199.407 130.531,199.490 130.410,199.941 130.426 C 200.437 130.444,200.480 130.332,200.545 128.843 C 200.584 127.961,200.717 127.227,200.842 127.211 C 200.966 127.194,201.202 127.168,201.365 127.151 C 201.568 127.131,201.684 126.538,201.731 125.282 C 201.798 123.505,201.820 123.442,202.384 123.442 C 202.953 123.442,202.967 123.396,202.967 121.630 C 202.967 120.001,203.028 119.761,203.561 119.267 C 204.092 118.775,204.154 118.530,204.154 116.942 C 204.154 115.282,204.189 115.162,204.688 115.091 C 205.178 115.021,205.228 114.873,205.292 113.309 C 205.355 111.756,205.408 111.596,205.885 111.529 C 206.346 111.463,206.418 111.290,206.481 110.089 C 206.520 109.338,206.646 108.724,206.760 108.724 C 207.334 108.724,207.715 107.913,207.715 106.689 C 207.715 105.459,207.743 105.401,208.334 105.401 C 208.787 105.401,208.916 105.305,208.816 105.045 C 208.741 104.849,208.772 104.688,208.886 104.688 C 208.999 104.688,209.092 104.330,209.092 103.892 C 209.092 103.351,209.290 102.898,209.709 102.479 C 210.209 101.979,210.326 101.636,210.326 100.680 C 210.326 99.636,210.388 99.490,210.861 99.423 C 211.314 99.359,211.413 99.167,211.513 98.160 C 211.612 97.171,211.711 96.973,212.107 96.973 C 212.586 96.973,212.598 96.934,212.671 95.193 C 212.695 94.599,212.799 94.481,213.294 94.481 C 213.774 94.481,213.887 94.363,213.887 93.866 C 213.887 93.528,214.109 93.071,214.381 92.851 C 214.653 92.631,214.951 92.080,215.043 91.627 C 215.167 91.025,215.337 90.802,215.677 90.802 C 216.160 90.801,216.183 90.743,216.231 89.377 C 216.257 88.657,216.340 88.546,216.855 88.546 C 217.325 88.546,217.448 88.426,217.448 87.969 C 217.448 87.551,217.596 87.371,217.982 87.316 C 218.407 87.256,218.531 87.065,218.588 86.384 C 218.640 85.760,218.818 85.442,219.241 85.216 C 219.602 85.023,219.822 84.696,219.822 84.352 C 219.822 83.920,219.952 83.798,220.415 83.798 C 220.886 83.798,221.009 83.678,221.009 83.221 C 221.009 82.804,221.156 82.623,221.543 82.568 C 221.881 82.520,222.104 82.302,222.151 81.973 C 222.197 81.649,222.421 81.426,222.745 81.380 C 223.109 81.328,223.286 81.114,223.338 80.666 C 223.388 80.229,223.518 80.067,223.747 80.155 C 224.221 80.336,224.868 79.616,224.702 79.092 C 224.584 78.723,224.671 78.673,225.279 78.762 C 225.912 78.855,225.994 78.799,225.994 78.272 C 225.994 77.836,226.152 77.638,226.588 77.529 C 226.971 77.432,227.181 77.213,227.181 76.909 C 227.181 76.566,227.341 76.439,227.774 76.439 C 228.246 76.439,228.368 76.320,228.368 75.859 C 228.368 75.335,228.478 75.271,229.496 75.206 C 230.458 75.144,230.634 75.055,230.699 74.599 C 230.754 74.213,230.934 74.065,231.352 74.065 C 231.809 74.065,231.929 73.942,231.929 73.472 C 231.929 72.918,232.008 72.878,233.116 72.878 C 234.224 72.878,234.303 72.839,234.303 72.285 C 234.303 71.708,234.348 71.691,235.990 71.691 C 237.481 71.691,237.728 71.626,238.119 71.129 C 238.362 70.820,238.887 70.502,239.284 70.422 C 240.218 70.235,240.475 69.556,240.475 67.269 C 240.475 64.921,240.273 64.570,238.923 64.570 C 237.951 64.570,237.864 64.521,237.864 63.976 L 237.864 63.383 231.205 63.383 L 224.547 63.383 223.997 63.976 M150.386 69.930 C 150.125 70.243,149.671 70.501,149.377 70.502 C 149.083 70.503,148.843 70.601,148.843 70.720 C 148.843 70.838,148.623 70.877,148.354 70.807 C 147.998 70.714,147.830 70.813,147.736 71.172 C 147.665 71.443,147.378 71.697,147.097 71.737 C 146.778 71.783,146.559 72.010,146.512 72.344 C 146.457 72.731,146.276 72.878,145.859 72.878 C 145.409 72.878,145.282 73.003,145.282 73.446 C 145.282 73.854,145.115 74.056,144.688 74.163 C 144.255 74.272,144.095 74.470,144.095 74.901 C 144.095 75.378,143.977 75.490,143.472 75.490 C 142.918 75.490,142.885 75.533,143.176 75.891 C 143.397 76.164,143.406 76.236,143.205 76.115 C 143.018 76.002,142.908 76.074,142.908 76.306 C 142.908 76.543,142.694 76.677,142.315 76.677 C 141.844 76.677,141.721 76.796,141.721 77.254 C 141.721 77.671,141.574 77.851,141.187 77.906 C 140.791 77.963,140.654 78.138,140.658 78.586 C 140.663 79.112,140.579 79.177,140.006 79.093 C 139.433 79.009,139.347 79.075,139.347 79.601 C 139.347 80.084,139.216 80.221,138.694 80.281 C 138.227 80.335,138.020 80.508,137.966 80.890 C 137.924 81.184,137.732 81.424,137.538 81.424 C 137.345 81.424,137.040 81.772,136.861 82.196 C 136.682 82.620,136.314 83.203,136.042 83.492 C 135.771 83.780,135.549 84.221,135.549 84.473 C 135.549 84.736,135.340 84.985,135.057 85.059 C 134.786 85.129,134.506 85.409,134.435 85.680 C 134.316 86.138,134.067 86.283,133.560 86.190 C 133.446 86.169,133.409 86.370,133.479 86.637 C 133.548 86.904,133.509 87.062,133.390 86.989 C 133.272 86.916,133.175 86.952,133.175 87.070 C 133.175 87.187,132.908 87.405,132.582 87.553 C 132.233 87.712,131.988 88.022,131.988 88.304 C 131.988 88.575,131.831 88.783,131.626 88.783 C 131.222 88.783,130.801 89.698,130.801 90.579 C 130.801 91.038,130.678 91.157,130.208 91.157 C 129.733 91.157,129.614 91.276,129.614 91.751 C 129.614 92.226,129.496 92.344,129.021 92.344 C 128.546 92.344,128.427 92.463,128.427 92.938 C 128.427 93.408,128.308 93.531,127.850 93.531 C 127.402 93.531,127.250 93.678,127.173 94.184 C 127.119 94.543,127.058 94.216,127.039 93.456 C 127.006 92.203,127.066 92.023,127.693 91.496 C 128.310 90.977,128.379 90.779,128.346 89.634 C 128.325 88.930,128.379 88.397,128.465 88.450 C 128.717 88.607,129.293 88.314,129.348 88.002 C 129.376 87.844,129.456 87.111,129.527 86.372 C 129.632 85.279,129.746 85.006,130.141 84.903 C 130.461 84.819,130.577 84.650,130.483 84.406 C 130.405 84.202,130.451 84.036,130.586 84.036 C 130.721 84.036,130.812 83.849,130.789 83.620 C 130.607 81.835,130.823 80.054,131.217 80.086 C 131.445 80.104,131.605 79.985,131.573 79.822 C 131.540 79.659,131.620 79.525,131.751 79.525 C 131.881 79.525,131.988 79.252,131.988 78.918 C 131.988 78.501,131.895 78.363,131.691 78.478 C 131.454 78.612,131.454 78.581,131.691 78.326 C 131.872 78.131,131.988 77.333,131.988 76.287 C 131.988 74.467,131.869 74.242,130.829 74.095 C 130.714 74.079,130.564 73.855,130.497 73.597 C 130.410 73.265,130.092 73.084,129.401 72.973 C 128.865 72.888,128.427 72.732,128.427 72.628 C 128.427 71.969,127.640 71.731,125.463 71.731 C 124.221 71.731,123.205 71.826,123.205 71.941 C 123.205 72.057,123.026 72.083,122.807 71.999 C 122.507 71.884,122.447 71.943,122.562 72.241 C 122.720 72.653,122.418 72.786,120.950 72.954 C 120.485 73.007,120.137 73.234,119.950 73.607 C 119.791 73.922,119.471 74.181,119.237 74.182 C 118.961 74.183,118.789 74.393,118.743 74.785 C 118.702 75.133,118.452 75.483,118.149 75.616 C 117.696 75.815,117.617 76.060,117.556 77.448 C 117.498 78.761,117.381 79.163,116.903 79.678 C 116.398 80.223,116.320 80.532,116.320 81.996 C 116.320 83.521,116.268 83.709,115.786 83.920 C 115.296 84.135,115.247 84.334,115.184 86.327 C 115.119 88.412,115.093 88.505,114.531 88.646 C 113.975 88.785,113.947 88.880,113.947 90.558 C 113.947 92.137,113.882 92.387,113.336 92.933 C 112.941 93.328,112.740 93.772,112.768 94.190 C 112.891 96.079,112.750 97.329,112.412 97.329 C 111.825 97.329,111.573 98.165,111.573 100.106 C 111.573 101.806,111.527 101.985,111.039 102.199 C 110.550 102.413,110.498 102.616,110.435 104.552 C 110.373 106.450,110.305 106.726,109.782 107.211 C 109.246 107.708,109.199 107.924,109.199 109.882 C 109.199 111.872,109.160 112.044,108.605 112.480 C 108.014 112.945,108.012 112.959,108.012 117.007 L 108.012 121.068 108.605 121.068 C 109.080 121.068,109.199 121.187,109.199 121.662 C 109.199 122.136,109.318 122.255,109.792 122.255 C 110.267 122.255,110.386 122.374,110.386 122.849 C 110.386 123.323,110.504 123.442,110.979 123.442 C 111.456 123.442,111.573 123.560,111.573 124.043 L 111.573 124.644 114.481 124.577 C 117.292 124.513,117.391 124.493,117.465 123.976 C 117.532 123.504,117.677 123.442,118.726 123.442 C 120.333 123.442,120.796 123.148,120.978 122.010 C 121.105 121.220,121.219 121.068,121.692 121.068 C 122.157 121.068,122.255 120.947,122.255 120.370 C 122.255 119.986,122.379 119.596,122.529 119.503 C 122.699 119.398,122.739 119.437,122.634 119.607 C 122.397 119.991,122.696 119.949,123.103 119.542 C 123.290 119.356,123.442 118.833,123.442 118.381 C 123.442 117.693,123.543 117.534,124.060 117.404 C 124.520 117.288,124.649 117.133,124.561 116.798 C 124.470 116.450,124.586 116.331,125.070 116.274 C 125.638 116.209,125.704 116.095,125.770 115.074 C 125.835 114.056,125.898 113.947,126.423 113.947 C 126.908 113.947,127.003 113.831,127.003 113.242 C 127.003 112.718,127.093 112.572,127.353 112.671 C 127.715 112.811,128.427 112.262,128.427 111.843 C 128.427 111.712,128.641 111.537,128.902 111.454 C 129.162 111.371,129.443 111.034,129.526 110.705 C 129.609 110.375,129.926 109.837,130.230 109.508 C 130.535 109.179,130.775 108.842,130.765 108.758 C 130.674 108.056,130.857 107.774,131.405 107.774 C 131.750 107.774,131.992 107.647,131.970 107.478 C 131.881 106.791,132.021 106.588,132.582 106.588 C 133.056 106.588,133.175 106.469,133.175 105.994 C 133.175 105.519,133.294 105.401,133.769 105.401 C 134.239 105.401,134.362 105.281,134.362 104.824 C 134.362 104.406,134.510 104.226,134.896 104.171 C 135.260 104.119,135.456 103.905,135.510 103.501 C 135.553 103.175,135.703 102.801,135.841 102.671 C 136.014 102.508,136.040 102.527,135.926 102.730 C 135.712 103.108,136.076 103.116,136.451 102.742 C 136.815 102.378,136.823 101.995,136.462 102.219 C 136.287 102.327,136.252 102.283,136.366 102.099 C 136.464 101.940,136.801 101.713,137.115 101.594 C 137.437 101.471,137.685 101.183,137.685 100.932 C 137.685 100.424,138.440 99.466,138.841 99.466 C 138.989 99.466,139.110 99.199,139.110 98.872 C 139.110 98.402,139.230 98.279,139.687 98.279 C 140.135 98.279,140.287 98.132,140.364 97.626 C 140.418 97.267,140.479 97.900,140.499 99.033 C 140.531 100.937,140.492 101.127,139.973 101.534 C 139.458 101.940,139.409 102.167,139.365 104.328 C 139.311 106.981,139.288 107.064,138.646 106.896 C 137.956 106.716,137.905 107.242,138.010 113.472 C 138.111 119.414,138.130 119.690,138.437 119.501 C 138.546 119.434,138.635 119.492,138.635 119.630 C 138.635 119.768,138.748 119.881,138.886 119.881 C 139.025 119.881,139.062 119.758,138.968 119.607 C 138.863 119.437,138.903 119.398,139.073 119.503 C 139.243 119.608,139.347 120.388,139.347 121.557 C 139.347 123.398,139.361 123.442,139.928 123.442 C 140.452 123.442,140.515 123.552,140.580 124.570 C 140.642 125.532,140.731 125.708,141.187 125.773 C 141.657 125.840,141.721 125.987,141.721 126.994 C 141.721 128.017,141.784 128.154,142.315 128.287 C 142.708 128.386,142.908 128.602,142.908 128.926 C 142.908 129.208,143.032 129.375,143.200 129.319 C 143.487 129.223,143.710 129.355,144.563 130.124 C 144.801 130.339,145.321 130.587,145.718 130.674 C 146.216 130.783,146.463 130.993,146.514 131.351 C 146.629 132.162,158.177 132.171,158.292 131.360 C 158.350 130.954,158.584 130.818,159.447 130.689 C 160.233 130.571,160.562 130.402,160.648 130.070 C 160.714 129.820,160.923 129.614,161.113 129.614 C 161.502 129.614,162.136 129.054,162.136 128.709 C 162.136 128.585,162.358 128.425,162.629 128.354 C 162.900 128.283,163.179 128.004,163.250 127.733 C 163.321 127.462,163.527 127.227,163.707 127.211 C 163.888 127.194,164.142 127.154,164.273 127.122 C 164.404 127.089,164.673 127.049,164.872 127.033 C 165.070 127.016,165.352 126.741,165.498 126.422 C 165.643 126.102,165.988 125.808,166.264 125.769 C 166.630 125.717,166.764 125.530,166.759 125.081 C 166.754 124.605,166.849 124.489,167.174 124.574 C 167.407 124.635,167.596 124.559,167.596 124.405 C 167.596 124.252,167.703 124.192,167.834 124.273 C 167.964 124.354,168.071 124.207,168.071 123.947 C 168.071 123.638,168.256 123.449,168.605 123.399 C 168.956 123.350,169.139 123.160,169.139 122.849 C 169.139 122.533,169.338 122.334,169.733 122.254 C 170.122 122.175,170.353 121.948,170.403 121.594 C 170.445 121.298,170.739 120.796,171.056 120.479 C 171.373 120.162,171.632 119.631,171.632 119.299 C 171.632 118.812,171.748 118.694,172.226 118.694 C 172.789 118.694,172.819 118.626,172.819 117.348 C 172.819 116.428,172.944 115.864,173.212 115.568 C 173.577 115.164,173.577 115.103,173.212 114.699 C 172.996 114.461,172.819 114.037,172.819 113.758 C 172.819 112.635,169.458 112.305,169.301 113.412 C 169.237 113.863,169.079 113.947,168.287 113.947 C 167.528 113.947,167.299 114.055,167.090 114.514 C 166.904 114.924,166.569 115.123,165.885 115.233 C 165.217 115.339,164.901 115.523,164.815 115.852 C 164.729 116.182,164.490 116.320,164.008 116.320 C 163.440 116.320,163.323 116.419,163.323 116.901 C 163.323 117.425,163.214 117.488,162.196 117.554 C 161.242 117.615,161.057 117.707,160.994 118.148 C 160.931 118.588,160.746 118.681,159.807 118.741 C 158.860 118.802,158.683 118.893,158.619 119.347 C 158.556 119.786,158.386 119.885,157.669 119.904 C 157.188 119.916,156.154 119.947,155.371 119.973 C 153.284 120.042,152.270 119.831,152.353 119.345 C 152.397 119.085,152.210 118.892,151.819 118.794 C 151.345 118.675,151.217 118.494,151.217 117.945 C 151.217 117.506,150.997 117.044,150.623 116.697 C 149.754 115.892,149.703 110.608,150.556 109.917 C 151.007 109.552,151.101 109.186,151.209 107.386 C 151.323 105.482,151.381 105.282,151.810 105.282 C 152.232 105.282,152.294 105.097,152.365 103.620 C 152.455 101.765,152.433 101.828,153.035 101.741 C 153.404 101.687,153.483 101.418,153.541 99.993 C 153.604 98.462,153.658 98.303,154.135 98.235 C 154.579 98.172,154.670 97.988,154.731 97.030 C 154.784 96.212,154.964 95.740,155.384 95.320 C 155.868 94.836,155.964 94.508,155.964 93.345 C 155.964 92.051,156.003 91.952,156.499 91.969 C 157.073 91.990,157.082 91.959,157.126 89.809 C 157.148 88.723,157.214 88.570,157.685 88.503 C 158.174 88.434,158.225 88.284,158.289 86.740 C 158.351 85.216,158.414 85.027,158.934 84.790 C 159.493 84.535,159.512 84.439,159.577 81.611 C 159.642 78.789,159.661 78.695,160.158 78.721 C 160.538 78.741,160.650 78.633,160.587 78.306 C 160.540 78.062,160.595 77.864,160.708 77.864 C 161.333 77.864,160.906 73.510,160.213 72.817 C 159.634 72.239,159.517 71.921,159.493 70.861 C 159.457 69.307,159.511 69.323,154.421 69.345 C 150.963 69.361,150.847 69.378,150.386 69.930 M277.896 79.706 C 277.960 81.471,277.957 81.839,277.851 85.655 C 277.747 89.426,277.648 89.910,276.914 90.225 C 276.700 90.316,276.651 90.704,276.579 92.878 C 276.566 93.284,276.426 93.531,276.210 93.531 C 275.669 93.531,275.371 94.327,275.371 95.771 C 275.371 96.497,275.264 97.105,275.134 97.122 C 275.003 97.138,274.765 97.165,274.604 97.181 C 274.427 97.199,274.279 97.681,274.231 98.398 C 274.174 99.232,274.010 99.693,273.680 99.951 C 273.351 100.208,273.169 100.718,273.072 101.660 C 272.955 102.792,272.855 103.013,272.431 103.074 C 272.013 103.133,271.917 103.334,271.856 104.273 C 271.792 105.282,271.725 105.401,271.219 105.401 C 270.754 105.401,270.640 105.538,270.579 106.172 C 270.538 106.596,270.422 106.915,270.322 106.879 C 269.975 106.757,269.465 107.403,269.759 107.593 C 269.954 107.718,269.947 107.768,269.733 107.771 C 269.562 107.773,269.436 108.077,269.436 108.487 C 269.436 109.088,269.344 109.199,268.843 109.199 C 268.368 109.199,268.249 109.318,268.249 109.792 C 268.249 110.230,268.123 110.386,267.769 110.386 C 267.255 110.386,266.825 111.192,266.825 112.156 C 266.825 112.547,266.652 112.752,266.231 112.857 C 265.848 112.953,265.638 113.173,265.638 113.476 C 265.638 113.735,265.531 113.960,265.401 113.976 C 265.270 113.993,265.030 114.019,264.866 114.036 C 264.703 114.052,264.536 114.306,264.494 114.599 C 264.444 114.949,264.255 115.134,263.946 115.134 C 263.686 115.134,263.539 115.240,263.620 115.371 C 263.701 115.501,263.654 115.608,263.515 115.608 C 263.377 115.608,263.264 115.769,263.264 115.964 C 263.264 116.166,263.052 116.320,262.775 116.320 C 262.506 116.320,262.353 116.427,262.433 116.558 C 262.514 116.688,262.467 116.795,262.329 116.795 C 262.190 116.795,262.077 116.955,262.077 117.151 C 262.077 117.347,261.917 117.507,261.721 117.507 C 261.525 117.507,261.365 117.621,261.365 117.759 C 261.365 117.897,261.258 117.944,261.128 117.864 C 260.997 117.783,260.890 117.925,260.890 118.180 C 260.890 118.476,260.676 118.697,260.297 118.792 C 259.914 118.888,259.703 119.107,259.703 119.411 C 259.703 119.929,259.575 119.949,256.380 119.940 C 253.464 119.932,253.531 119.948,253.531 119.288 C 253.531 118.961,253.409 118.694,253.261 118.694 C 252.807 118.694,252.360 117.906,252.352 117.092 C 252.345 116.429,252.260 116.320,251.751 116.320 L 251.157 116.320 251.157 113.828 C 251.157 111.994,251.079 111.334,250.861 111.332 C 250.654 111.329,250.668 111.262,250.905 111.112 C 251.187 110.934,251.192 110.833,250.935 110.523 C 250.678 110.213,250.680 110.148,250.950 110.145 C 251.206 110.142,251.200 110.092,250.920 109.911 C 250.724 109.784,250.684 109.679,250.830 109.677 C 251.003 109.675,251.111 108.949,251.137 107.604 C 251.177 105.589,251.368 105.077,251.988 105.315 C 252.177 105.387,252.282 105.036,252.310 104.231 C 252.343 103.314,252.488 102.904,252.942 102.451 C 253.406 101.987,253.531 101.619,253.531 100.720 C 253.531 99.764,253.618 99.540,254.065 99.344 C 254.476 99.164,254.616 98.880,254.672 98.115 C 254.736 97.234,254.816 97.113,255.384 97.047 C 255.977 96.979,256.029 96.883,256.095 95.727 C 256.162 94.566,256.209 94.481,256.776 94.481 C 257.271 94.481,257.361 94.391,257.259 93.998 C 257.174 93.677,257.362 93.265,257.823 92.760 C 258.203 92.344,258.502 91.894,258.487 91.759 C 258.419 91.134,258.554 90.920,259.016 90.920 C 259.364 90.920,259.475 90.811,259.380 90.564 C 259.305 90.368,259.347 90.208,259.473 90.208 C 259.600 90.208,259.703 89.841,259.703 89.393 C 259.703 88.730,259.802 88.565,260.237 88.503 C 260.531 88.461,260.785 88.294,260.801 88.131 C 260.818 87.967,260.844 87.739,260.861 87.624 C 260.877 87.509,261.112 87.356,261.383 87.286 C 261.653 87.215,261.931 86.941,262.000 86.678 C 262.069 86.414,262.355 86.166,262.635 86.126 C 262.950 86.081,263.174 85.854,263.219 85.534 C 263.265 85.210,263.489 84.986,263.813 84.940 C 264.179 84.888,264.327 84.708,264.313 84.332 C 264.303 84.039,264.383 83.785,264.492 83.769 C 264.600 83.752,264.795 83.712,264.926 83.680 C 265.056 83.647,265.270 83.607,265.401 83.591 C 265.531 83.574,265.638 83.347,265.638 83.086 C 265.638 82.384,268.441 82.380,269.075 83.080 C 269.309 83.339,269.592 83.492,269.705 83.423 C 269.818 83.353,269.911 83.402,269.911 83.533 C 269.911 83.731,270.345 83.748,271.395 83.588 C 271.493 83.573,271.560 83.481,271.545 83.383 C 271.458 82.833,271.637 82.611,272.166 82.611 C 272.493 82.611,272.760 82.498,272.760 82.360 C 272.760 82.222,272.865 82.174,272.993 82.253 C 273.122 82.332,273.527 82.091,273.893 81.716 C 274.260 81.342,274.688 81.078,274.846 81.131 C 275.109 81.218,275.228 80.848,275.196 80.051 C 275.186 79.806,275.254 79.805,275.540 80.042 C 275.925 80.362,276.681 79.679,276.416 79.251 C 276.273 79.019,277.264 78.591,277.626 78.728 C 277.757 78.778,277.878 79.218,277.896 79.706 " stroke="none" fill="#8cc44c" fill-rule="evenodd"></path><path id="path1" d="M253.887 208.665 C 253.807 208.795,253.774 208.910,253.814 208.920 C 254.595 209.114,254.728 209.082,254.465 208.764 C 254.132 208.364,254.079 208.354,253.887 208.665 " stroke="none" fill="#90c44c" fill-rule="evenodd"></path><path id="path2" d="M253.887 208.665 C 253.807 208.795,253.774 208.910,253.814 208.920 C 254.595 209.114,254.728 209.082,254.465 208.764 C 254.132 208.364,254.079 208.354,253.887 208.665 " stroke="none" fill="#90c44c" fill-rule="evenodd"></path><path id="path3" d="M253.887 208.665 C 253.807 208.795,253.774 208.910,253.814 208.920 C 254.595 209.114,254.728 209.082,254.465 208.764 C 254.132 208.364,254.079 208.354,253.887 208.665 " stroke="none" fill="#90c44c" fill-rule="evenodd"></path><path id="path4" d="M253.887 208.665 C 253.807 208.795,253.774 208.910,253.814 208.920 C 254.595 209.114,254.728 209.082,254.465 208.764 C 254.132 208.364,254.079 208.354,253.887 208.665 " stroke="none" fill="#90c44c" fill-rule="evenodd"></path></g></svg>