<?xml version="1.0" standalone="no"?>
<!DOCTYPE svg PUBLIC "-//W3C//DTD SVG 20010904//EN"
 "http://www.w3.org/TR/2001/REC-SVG-20010904/DTD/svg10.dtd">
<svg version="1.0" xmlns="http://www.w3.org/2000/svg"
 width="35.000000pt" height="46.000000pt" viewBox="0 0 35.000000 46.000000"
 preserveAspectRatio="xMidYMid meet">

<g transform="translate(0.000000,46.000000) scale(0.100000,-0.100000)"
fill="#000000" stroke="none">
<path d="M146 429 c-65 -56 -116 -170 -116 -258 0 -50 20 -108 47 -138 22 -23
26 -24 39 -11 14 13 12 19 -10 53 -47 69 -29 202 40 289 16 20 34 36 40 36 14
0 90 -163 98 -210 7 -39 1 -52 -31 -69 -64 -33 -120 4 -108 73 10 48 32 67 51
41 8 -10 14 -25 14 -32 0 -7 9 -13 20 -13 38 0 18 77 -26 101 -53 28 -104 -33
-104 -125 0 -66 23 -89 96 -93 101 -7 144 36 130 130 -9 57 -106 251 -128 255
-9 2 -32 -11 -52 -29z"/>
</g>
</svg>
